<svg width="24" height="24" viewBox="0 0 24 24" fill="none" xmlns="http://www.w3.org/2000/svg">
<path d="M20.6475 12.3975L13.8975 19.1475C13.7909 19.2469 13.6498 19.301 13.5041 19.2984C13.3584 19.2958 13.2193 19.2368 13.1163 19.1337C13.0132 19.0307 12.9542 18.8916 12.9516 18.7459C12.949 18.6002 13.0031 18.4591 13.1025 18.3525L18.8916 12.5625H3.75C3.60082 12.5625 3.45774 12.5032 3.35225 12.3978C3.24676 12.2923 3.1875 12.1492 3.1875 12C3.1875 11.8508 3.24676 11.7077 3.35225 11.6023C3.45774 11.4968 3.60082 11.4375 3.75 11.4375H18.8916L13.1025 5.64751C13.0031 5.54088 12.949 5.39984 12.9516 5.25411C12.9542 5.10839 13.0132 4.96935 13.1163 4.86629C13.2193 4.76323 13.3584 4.7042 13.5041 4.70163C13.6498 4.69905 13.7909 4.75315 13.8975 4.85251L20.6475 11.6025C20.7528 11.708 20.812 11.8509 20.812 12C20.812 12.1491 20.7528 12.292 20.6475 12.3975Z" fill="#1D1A17"/>
</svg>
