<svg width="24" height="24" viewBox="0 0 24 24" fill="none" xmlns="http://www.w3.org/2000/svg">
<path d="M19.5 2.4375H6.75C6.00408 2.4375 5.28871 2.73382 4.76126 3.26126C4.23382 3.78871 3.9375 4.50408 3.9375 5.25V21C3.9375 21.1492 3.99676 21.2923 4.10225 21.3977C4.20774 21.5032 4.35082 21.5625 4.5 21.5625H18C18.1492 21.5625 18.2923 21.5032 18.3977 21.3977C18.5032 21.2923 18.5625 21.1492 18.5625 21C18.5625 20.8508 18.5032 20.7077 18.3977 20.6023C18.2923 20.4968 18.1492 20.4375 18 20.4375H5.0625V20.25C5.0625 19.8024 5.24029 19.3732 5.55676 19.0568C5.87323 18.7403 6.30245 18.5625 6.75 18.5625H19.5C19.6492 18.5625 19.7923 18.5032 19.8977 18.3977C20.0032 18.2923 20.0625 18.1492 20.0625 18V3C20.0625 2.85082 20.0032 2.70774 19.8977 2.60225C19.7923 2.49676 19.6492 2.4375 19.5 2.4375ZM11.0625 3.5625H15.9375V10.875L13.8366 9.3C13.7392 9.22697 13.6208 9.1875 13.4991 9.1875C13.3774 9.1875 13.2589 9.22697 13.1616 9.3L11.0625 10.875V3.5625ZM18.9375 17.4375H6.75C6.14132 17.4366 5.54892 17.6341 5.0625 18V5.25C5.0625 4.80245 5.24029 4.37323 5.55676 4.05676C5.87323 3.74029 6.30245 3.5625 6.75 3.5625H9.9375V12C9.9375 12.1045 9.96659 12.2069 10.0215 12.2957C10.0764 12.3846 10.155 12.4564 10.2484 12.5031C10.3419 12.5498 10.4465 12.5696 10.5505 12.5602C10.6546 12.5508 10.7539 12.5127 10.8375 12.45L13.5 10.4531L16.1634 12.45C16.247 12.5124 16.3463 12.5504 16.4502 12.5596C16.5541 12.5688 16.6585 12.549 16.7518 12.5023C16.845 12.4556 16.9235 12.3839 16.9784 12.2952C17.0332 12.2065 17.0624 12.1043 17.0625 12V3.5625H18.9375V17.4375Z" fill="#1D1A17"/>
</svg>
