<svg width="24" height="24" viewBox="0 0 24 24" fill="none" xmlns="http://www.w3.org/2000/svg">
<path d="M19.5 2.4375H6.75C6.00408 2.4375 5.28871 2.73382 4.76126 3.26126C4.23382 3.78871 3.9375 4.50408 3.9375 5.25V21C3.9375 21.1492 3.99676 21.2923 4.10225 21.3977C4.20774 21.5032 4.35082 21.5625 4.5 21.5625H18C18.1492 21.5625 18.2923 21.5032 18.3977 21.3977C18.5032 21.2923 18.5625 21.1492 18.5625 21C18.5625 20.8508 18.5032 20.7077 18.3977 20.6023C18.2923 20.4968 18.1492 20.4375 18 20.4375H5.0625V20.25C5.0625 19.8024 5.24029 19.3732 5.55676 19.0568C5.87323 18.7403 6.30245 18.5625 6.75 18.5625H19.5C19.6492 18.5625 19.7923 18.5032 19.8977 18.3977C20.0032 18.2923 20.0625 18.1492 20.0625 18V3C20.0625 2.85082 20.0032 2.70774 19.8977 2.60225C19.7923 2.49676 19.6492 2.4375 19.5 2.4375ZM18.9375 17.4375H6.75C6.14132 17.4366 5.54892 17.6341 5.0625 18V5.25C5.0625 4.80245 5.24029 4.37323 5.55676 4.05676C5.87323 3.74029 6.30245 3.5625 6.75 3.5625H18.9375V17.4375Z" fill="#1D1A17"/>
</svg>
