<svg width="24" height="24" viewBox="0 0 24 24" fill="none" xmlns="http://www.w3.org/2000/svg">
<path d="M9.75 3.18745H5.25C4.9019 3.18745 4.56806 3.32574 4.32192 3.57188C4.07578 3.81802 3.9375 4.15186 3.9375 4.49995V19.5C3.9375 19.8481 4.07578 20.1819 4.32192 20.428C4.56806 20.6742 4.9019 20.8125 5.25 20.8125H9.75C9.92236 20.8125 10.093 20.7785 10.2523 20.7125C10.4115 20.6466 10.5562 20.5499 10.6781 20.428C10.8 20.3062 10.8966 20.1615 10.9626 20.0022C11.0286 19.843 11.0625 19.6723 11.0625 19.5V4.49995C11.0625 4.32759 11.0286 4.15692 10.9626 3.99768C10.8966 3.83844 10.8 3.69375 10.6781 3.57188C10.5562 3.45 10.4115 3.35332 10.2523 3.28736C10.093 3.2214 9.92236 3.18745 9.75 3.18745ZM5.0625 7.31245H9.9375V16.6875H5.0625V7.31245ZM5.25 4.31245H9.75C9.79973 4.31245 9.84742 4.33221 9.88258 4.36737C9.91775 4.40253 9.9375 4.45023 9.9375 4.49995V6.18745H5.0625V4.49995C5.0625 4.45023 5.08225 4.40253 5.11742 4.36737C5.15258 4.33221 5.20027 4.31245 5.25 4.31245ZM9.75 19.6875H5.25C5.20027 19.6875 5.15258 19.6677 5.11742 19.6325C5.08225 19.5974 5.0625 19.5497 5.0625 19.5V17.8125H9.9375V19.5C9.9375 19.5497 9.91775 19.5974 9.88258 19.6325C9.84742 19.6677 9.79973 19.6875 9.75 19.6875ZM21.5344 18.2812L18.4228 3.4837C18.3877 3.3143 18.3194 3.15352 18.222 3.01059C18.1245 2.86767 17.9997 2.74542 17.8548 2.65089C17.7099 2.55636 17.5478 2.4914 17.3777 2.45976C17.2076 2.42812 17.0329 2.43042 16.8638 2.46652L12.4753 3.40964C12.1357 3.4843 11.8392 3.68986 11.6502 3.98174C11.4611 4.27361 11.3948 4.62825 11.4656 4.9687L14.5772 19.7634C14.6126 19.9334 14.6814 20.0947 14.7795 20.2379C14.8777 20.3811 15.0033 20.5034 15.1491 20.5978C15.36 20.7358 15.6066 20.8094 15.8588 20.8096C15.9533 20.8101 16.0477 20.8001 16.14 20.7796L20.5284 19.8375C20.8668 19.7619 21.1619 19.5564 21.3501 19.2653C21.5383 18.9742 21.6045 18.6207 21.5344 18.2812ZM13.7709 10.47L18.5269 9.44808L19.8506 15.7443L15.0938 16.7634L13.7709 10.47ZM13.1494 7.5112L17.9062 6.48652L18.2953 8.3437L13.5394 9.36558L13.1494 7.5112ZM12.7125 4.5112L17.1 3.56902C17.1131 3.56775 17.1263 3.56775 17.1394 3.56902C17.1744 3.56906 17.2087 3.5795 17.2378 3.59902C17.2593 3.61273 17.2779 3.63069 17.2922 3.65181C17.3066 3.67293 17.3164 3.69676 17.3212 3.72183L17.6728 5.39245L12.9178 6.40683L12.5672 4.73995C12.5562 4.69013 12.5653 4.638 12.5925 4.59483C12.6197 4.55167 12.6628 4.52095 12.7125 4.50933V4.5112ZM20.2884 18.7425L15.9 19.6875C15.8765 19.6927 15.8522 19.6931 15.8285 19.6888C15.8049 19.6844 15.7823 19.6754 15.7622 19.6621C15.7407 19.6484 15.7221 19.6305 15.7078 19.6093C15.6934 19.5882 15.6836 19.5644 15.6788 19.5393L15.3272 17.8687L20.0822 16.8468L20.4375 18.509C20.443 18.534 20.4435 18.5599 20.439 18.5851C20.4345 18.6102 20.425 18.6343 20.4112 18.6558C20.3973 18.6773 20.3793 18.6959 20.3583 18.7105C20.3372 18.725 20.3135 18.7352 20.2884 18.7406V18.7425Z" fill="#1D1A17"/>
</svg>
