<svg width="24" height="24" viewBox="0 0 24 24" fill="none" xmlns="http://www.w3.org/2000/svg">
<path d="M17.25 3.1875H6.75C6.00408 3.1875 5.28871 3.48382 4.76126 4.01126C4.23382 4.53871 3.9375 5.25408 3.9375 6V19.5C3.9375 19.8481 4.07578 20.1819 4.32192 20.4281C4.56806 20.6742 4.9019 20.8125 5.25 20.8125H7.5C7.8481 20.8125 8.18194 20.6742 8.42808 20.4281C8.67422 20.1819 8.8125 19.8481 8.8125 19.5V17.8125H15.1875V19.5C15.1875 19.8481 15.3258 20.1819 15.5719 20.4281C15.8181 20.6742 16.1519 20.8125 16.5 20.8125H18.75C19.0981 20.8125 19.4319 20.6742 19.6781 20.4281C19.9242 20.1819 20.0625 19.8481 20.0625 19.5V6C20.0625 5.25408 19.7662 4.53871 19.2387 4.01126C18.7113 3.48382 17.9959 3.1875 17.25 3.1875ZM5.0625 16.6875V11.0625H18.9375V16.6875H5.0625ZM5.0625 7.3125H18.9375V9.9375H5.0625V7.3125ZM6.75 4.3125H17.25C17.6976 4.3125 18.1268 4.49029 18.4432 4.80676C18.7597 5.12323 18.9375 5.55245 18.9375 6V6.1875H5.0625V6C5.0625 5.55245 5.24029 5.12323 5.55676 4.80676C5.87323 4.49029 6.30245 4.3125 6.75 4.3125ZM7.6875 19.5C7.6875 19.5497 7.66775 19.5974 7.63258 19.6326C7.59742 19.6677 7.54973 19.6875 7.5 19.6875H5.25C5.20027 19.6875 5.15258 19.6677 5.11742 19.6326C5.08225 19.5974 5.0625 19.5497 5.0625 19.5V17.8125H7.6875V19.5ZM18.75 19.6875H16.5C16.4503 19.6875 16.4026 19.6677 16.3674 19.6326C16.3323 19.5974 16.3125 19.5497 16.3125 19.5V17.8125H18.9375V19.5C18.9375 19.5497 18.9177 19.5974 18.8826 19.6326C18.8474 19.6677 18.7997 19.6875 18.75 19.6875ZM9.5625 13.875C9.5625 14.0604 9.50752 14.2417 9.4045 14.3958C9.30149 14.55 9.15507 14.6702 8.98377 14.7411C8.81246 14.8121 8.62396 14.8307 8.4421 14.7945C8.26025 14.7583 8.0932 14.669 7.96209 14.5379C7.83098 14.4068 7.74169 14.2398 7.70551 14.0579C7.66934 13.876 7.68791 13.6875 7.75886 13.5162C7.82982 13.3449 7.94998 13.1985 8.10415 13.0955C8.25832 12.9925 8.43958 12.9375 8.625 12.9375C8.87364 12.9375 9.1121 13.0363 9.28791 13.2121C9.46373 13.3879 9.5625 13.6264 9.5625 13.875ZM16.3125 13.875C16.3125 14.0604 16.2575 14.2417 16.1545 14.3958C16.0515 14.55 15.9051 14.6702 15.7338 14.7411C15.5625 14.8121 15.374 14.8307 15.1921 14.7945C15.0102 14.7583 14.8432 14.669 14.7121 14.5379C14.581 14.4068 14.4917 14.2398 14.4555 14.0579C14.4193 13.876 14.4379 13.6875 14.5089 13.5162C14.5798 13.3449 14.7 13.1985 14.8542 13.0955C15.0083 12.9925 15.1896 12.9375 15.375 12.9375C15.6236 12.9375 15.8621 13.0363 16.0379 13.2121C16.2137 13.3879 16.3125 13.6264 16.3125 13.875ZM23.0625 7.5V9.75C23.0625 9.89918 23.0032 10.0423 22.8977 10.1477C22.7923 10.2532 22.6492 10.3125 22.5 10.3125C22.3508 10.3125 22.2077 10.2532 22.1023 10.1477C21.9968 10.0423 21.9375 9.89918 21.9375 9.75V7.5C21.9375 7.35082 21.9968 7.20774 22.1023 7.10225C22.2077 6.99676 22.3508 6.9375 22.5 6.9375C22.6492 6.9375 22.7923 6.99676 22.8977 7.10225C23.0032 7.20774 23.0625 7.35082 23.0625 7.5ZM2.0625 7.5V9.75C2.0625 9.89918 2.00324 10.0423 1.89775 10.1477C1.79226 10.2532 1.64918 10.3125 1.5 10.3125C1.35082 10.3125 1.20774 10.2532 1.10225 10.1477C0.996763 10.0423 0.9375 9.89918 0.9375 9.75V7.5C0.9375 7.35082 0.996763 7.20774 1.10225 7.10225C1.20774 6.99676 1.35082 6.9375 1.5 6.9375C1.64918 6.9375 1.79226 6.99676 1.89775 7.10225C2.00324 7.20774 2.0625 7.35082 2.0625 7.5Z" fill="#1D1A17"/>
</svg>
