<svg width="24" height="24" viewBox="0 0 24 24" fill="none" xmlns="http://www.w3.org/2000/svg">
<path d="M19.8975 9.39751L12.3975 16.8975C12.292 17.0028 12.1491 17.062 12 17.062C11.8509 17.062 11.708 17.0028 11.6025 16.8975L4.10251 9.39751C4.00315 9.29088 3.94905 9.14984 3.95163 9.00412C3.9542 8.85839 4.01323 8.71935 4.11629 8.61629C4.21935 8.51323 4.35839 8.4542 4.50412 8.45163C4.64984 8.44905 4.79088 8.50315 4.89751 8.60251L12 15.7041L19.1025 8.60251C19.2091 8.50315 19.3502 8.44905 19.4959 8.45163C19.6416 8.4542 19.7807 8.51323 19.8837 8.61629C19.9868 8.71935 20.0458 8.85839 20.0484 9.00412C20.051 9.14984 19.9969 9.29088 19.8975 9.39751Z" fill="#1D1A17"/>
</svg>
