<svg width="24" height="24" viewBox="0 0 24 24" fill="none" xmlns="http://www.w3.org/2000/svg">
<path d="M20.25 9.1875H16.3125V5.25C16.3125 5.10082 16.2532 4.95774 16.1477 4.85225C16.0423 4.74676 15.8992 4.6875 15.75 4.6875H4.3125V3.75C4.3125 3.60082 4.25324 3.45774 4.14775 3.35225C4.04226 3.24676 3.89918 3.1875 3.75 3.1875C3.60082 3.1875 3.45774 3.24676 3.35225 3.35225C3.24676 3.45774 3.1875 3.60082 3.1875 3.75V20.25C3.1875 20.3992 3.24676 20.5423 3.35225 20.6477C3.45774 20.7532 3.60082 20.8125 3.75 20.8125C3.89918 20.8125 4.04226 20.7532 4.14775 20.6477C4.25324 20.5423 4.3125 20.3992 4.3125 20.25V19.3125H12.75C12.8992 19.3125 13.0423 19.2532 13.1477 19.1477C13.2532 19.0423 13.3125 18.8992 13.3125 18.75V14.8125H20.25C20.3992 14.8125 20.5423 14.7532 20.6477 14.6477C20.7532 14.5423 20.8125 14.3992 20.8125 14.25V9.75C20.8125 9.60082 20.7532 9.45774 20.6477 9.35225C20.5423 9.24676 20.3992 9.1875 20.25 9.1875ZM15.1875 5.8125V9.1875H4.3125V5.8125H15.1875ZM12.1875 18.1875H4.3125V14.8125H12.1875V18.1875ZM19.6875 13.6875H4.3125V10.3125H19.6875V13.6875Z" fill="#1D1A17"/>
</svg>
