<svg width="24" height="24" viewBox="0 0 24 24" fill="none" xmlns="http://www.w3.org/2000/svg">
<path d="M21.3975 7.14751L9.39751 19.1475C9.29204 19.2528 9.14907 19.312 9.00001 19.312C8.85094 19.312 8.70798 19.2528 8.60251 19.1475L3.35251 13.8975C3.25315 13.7909 3.19905 13.6498 3.20163 13.5041C3.2042 13.3584 3.26323 13.2194 3.36629 13.1163C3.46935 13.0132 3.60839 12.9542 3.75412 12.9516C3.89984 12.9491 4.04088 13.0031 4.14751 13.1025L9.00001 17.9541L20.6025 6.35251C20.7091 6.25315 20.8502 6.19905 20.9959 6.20163C21.1416 6.2042 21.2807 6.26323 21.3837 6.36629C21.4868 6.46935 21.5458 6.60839 21.5484 6.75412C21.551 6.89984 21.4969 7.04088 21.3975 7.14751Z" fill="#1D1A17"/>
</svg>
