<svg width="24" height="24" viewBox="0 0 24 24" fill="none" xmlns="http://www.w3.org/2000/svg">
<path d="M15.5625 14.25C15.5625 14.3992 15.5032 14.5423 15.3977 14.6478C15.2923 14.7533 15.1492 14.8125 15 14.8125H9C8.85082 14.8125 8.70774 14.7533 8.60225 14.6478C8.49676 14.5423 8.4375 14.3992 8.4375 14.25C8.4375 14.1008 8.49676 13.9578 8.60225 13.8523C8.70774 13.7468 8.85082 13.6875 9 13.6875H15C15.1492 13.6875 15.2923 13.7468 15.3977 13.8523C15.5032 13.9578 15.5625 14.1008 15.5625 14.25ZM15 10.6875H9C8.85082 10.6875 8.70774 10.7468 8.60225 10.8523C8.49676 10.9578 8.4375 11.1008 8.4375 11.25C8.4375 11.3992 8.49676 11.5423 8.60225 11.6478C8.70774 11.7532 8.85082 11.8125 9 11.8125H15C15.1492 11.8125 15.2923 11.7532 15.3977 11.6478C15.5032 11.5423 15.5625 11.3992 15.5625 11.25C15.5625 11.1008 15.5032 10.9578 15.3977 10.8523C15.2923 10.7468 15.1492 10.6875 15 10.6875ZM20.0625 4.50001V20.25C20.0625 20.5981 19.9242 20.9319 19.6781 21.1781C19.4319 21.4242 19.0981 21.5625 18.75 21.5625H5.25C4.9019 21.5625 4.56806 21.4242 4.32192 21.1781C4.07578 20.9319 3.9375 20.5981 3.9375 20.25V4.50001C3.9375 4.15192 4.07578 3.81808 4.32192 3.57194C4.56806 3.32579 4.9019 3.18751 5.25 3.18751H8.73469C9.13875 2.71699 9.63973 2.33934 10.2033 2.08044C10.7669 1.82154 11.3798 1.6875 12 1.6875C12.6202 1.6875 13.2331 1.82154 13.7967 2.08044C14.3603 2.33934 14.8613 2.71699 15.2653 3.18751H18.75C19.0981 3.18751 19.4319 3.32579 19.6781 3.57194C19.9242 3.81808 20.0625 4.15192 20.0625 4.50001ZM8.8125 6.00001V6.18751H15.1875V6.00001C15.1875 5.15464 14.8517 4.34388 14.2539 3.74611C13.6561 3.14834 12.8454 2.81251 12 2.81251C11.1546 2.81251 10.3439 3.14834 9.7461 3.74611C9.14832 4.34388 8.8125 5.15464 8.8125 6.00001ZM18.9375 4.50001C18.9375 4.45029 18.9177 4.40259 18.8826 4.36743C18.8474 4.33227 18.7997 4.31251 18.75 4.31251H15.9684C16.196 4.84598 16.313 5.42004 16.3125 6.00001V6.75001C16.3125 6.8992 16.2532 7.04227 16.1477 7.14776C16.0423 7.25325 15.8992 7.31251 15.75 7.31251H8.25C8.10082 7.31251 7.95774 7.25325 7.85225 7.14776C7.74676 7.04227 7.6875 6.8992 7.6875 6.75001V6.00001C7.68697 5.42004 7.80401 4.84598 8.03156 4.31251H5.25C5.20027 4.31251 5.15258 4.33227 5.11742 4.36743C5.08225 4.40259 5.0625 4.45029 5.0625 4.50001V20.25C5.0625 20.2997 5.08225 20.3474 5.11742 20.3826C5.15258 20.4178 5.20027 20.4375 5.25 20.4375H18.75C18.7997 20.4375 18.8474 20.4178 18.8826 20.3826C18.9177 20.3474 18.9375 20.2997 18.9375 20.25V4.50001Z" fill="#1D1A17"/>
</svg>
