<svg width="24" height="24" viewBox="0 0 24 24" fill="none" xmlns="http://www.w3.org/2000/svg">
<path d="M22.7363 7.28442C22.5952 7.16141 22.4209 7.08308 22.2352 7.05938C22.0496 7.03567 21.8612 7.06767 21.6938 7.15129L16.8309 9.57567L12.8119 2.89598C12.7276 2.75603 12.6085 2.64024 12.4663 2.55987C12.324 2.47949 12.1634 2.43726 12 2.43726C11.8366 2.43726 11.676 2.47949 11.5338 2.55987C11.3915 2.64024 11.2724 2.75603 11.1881 2.89598L7.16907 9.57567L2.30813 7.15223C2.14077 7.06867 1.95241 7.03656 1.76682 7.05994C1.58123 7.08332 1.40673 7.16114 1.26532 7.28359C1.12391 7.40605 1.02195 7.56764 0.97228 7.74798C0.922614 7.92832 0.927476 8.11934 0.986253 8.29692L4.455 18.9244C4.48113 19.0046 4.52496 19.0779 4.58325 19.1389C4.64154 19.1999 4.7128 19.247 4.79175 19.2767C4.8707 19.3064 4.95533 19.318 5.03936 19.3105C5.12339 19.3031 5.20467 19.2769 5.27719 19.2338C5.28375 19.2338 5.89219 18.8738 7.02094 18.5232C8.0625 18.1988 9.76969 17.8125 12 17.8125C14.2303 17.8125 15.9375 18.1988 16.98 18.5232C18.105 18.8738 18.7172 19.23 18.7219 19.2329C18.7944 19.2761 18.8757 19.3026 18.9598 19.3101C19.0439 19.3177 19.1286 19.3063 19.2076 19.2766C19.2867 19.247 19.3581 19.2 19.4165 19.139C19.4749 19.078 19.5188 19.0047 19.545 18.9244L23.0138 8.29879C23.0742 8.12135 23.0801 7.92985 23.0306 7.74903C22.9812 7.56821 22.8786 7.40637 22.7363 7.28442ZM18.6778 17.956C17.6466 17.4947 15.3591 16.6875 12 16.6875C8.64094 16.6875 6.35344 17.4947 5.32219 17.956L2.18625 8.34848L6.81282 10.6547C7.02637 10.7602 7.2717 10.7819 7.50043 10.7154C7.72915 10.6489 7.92467 10.4992 8.04844 10.2957L12 3.73317L15.9516 10.3004C16.0755 10.5035 16.2708 10.6529 16.4993 10.7193C16.7277 10.7858 16.9728 10.7644 17.1863 10.6594L21.8138 8.35223L18.6778 17.956ZM16.3041 14.6672C16.282 14.798 16.2143 14.9168 16.1131 15.0026C16.0119 15.0884 15.8836 15.1356 15.7509 15.136C15.7195 15.1357 15.6882 15.1329 15.6572 15.1275C13.2399 14.7125 10.7695 14.7125 8.35219 15.1275C8.20475 15.1535 8.05302 15.1199 7.93039 15.034C7.80776 14.9481 7.72427 14.817 7.69828 14.6696C7.6723 14.5221 7.70596 14.3704 7.79184 14.2478C7.87773 14.1251 8.00881 14.0416 8.15625 14.0157C10.7026 13.5782 13.3049 13.5782 15.8513 14.0157C15.9975 14.0424 16.1273 14.1259 16.2121 14.248C16.297 14.3701 16.33 14.5208 16.3041 14.6672Z" fill="#1D1A17"/>
</svg>
