<svg width="24" height="24" viewBox="0 0 24 24" fill="none" xmlns="http://www.w3.org/2000/svg">
<path d="M20.625 18.825L14.8125 9.13875V3.5625H15.75C15.8992 3.5625 16.0422 3.50324 16.1477 3.39775C16.2532 3.29226 16.3125 3.14918 16.3125 3C16.3125 2.85082 16.2532 2.70774 16.1477 2.60225C16.0422 2.49676 15.8992 2.4375 15.75 2.4375H8.24999C8.1008 2.4375 7.95773 2.49676 7.85224 2.60225C7.74675 2.70774 7.68749 2.85082 7.68749 3C7.68749 3.14918 7.74675 3.29226 7.85224 3.39775C7.95773 3.50324 8.1008 3.5625 8.24999 3.5625H9.18749V9.13875L3.37499 18.825C3.25558 19.0241 3.19113 19.2514 3.18821 19.4835C3.1853 19.7157 3.24402 19.9445 3.3584 20.1465C3.47277 20.3486 3.6387 20.5167 3.83925 20.6337C4.0398 20.7507 4.2678 20.8124 4.49999 20.8125H19.5C19.7322 20.8124 19.9602 20.7507 20.1607 20.6337C20.3613 20.5167 20.5272 20.3486 20.6416 20.1465C20.7559 19.9445 20.8147 19.7157 20.8118 19.4835C20.8088 19.2514 20.7444 19.0241 20.625 18.825ZM10.2328 9.58406C10.2851 9.49651 10.3127 9.39638 10.3125 9.29437V3.5625H13.6875V9.29437C13.6873 9.39638 13.7148 9.49651 13.7672 9.58406L17.4844 15.7791C16.3209 16.0753 14.5912 16.0603 12.2541 14.8734C10.6659 14.0691 9.1603 13.6734 7.76999 13.6884L10.2328 9.58406ZM19.6612 19.5938C19.6447 19.6224 19.6209 19.6461 19.5923 19.6626C19.5636 19.679 19.5312 19.6876 19.4981 19.6875H4.49999C4.46725 19.6871 4.43518 19.6782 4.40696 19.6616C4.37874 19.645 4.35536 19.6213 4.33915 19.5929C4.32294 19.5644 4.31446 19.5322 4.31455 19.4995C4.31464 19.4667 4.3233 19.4346 4.33967 19.4062L7.05842 14.8678C8.45436 14.6728 10.0284 15.0131 11.7403 15.8794C13.5 16.7625 14.969 17.0625 16.1644 17.0625C16.8147 17.0673 17.4619 16.9725 18.0834 16.7812L19.6584 19.4062C19.6753 19.4345 19.6845 19.4667 19.685 19.4996C19.6854 19.5325 19.6773 19.565 19.6612 19.5938Z" fill="#1D1A17"/>
</svg>
