<svg width="24" height="24" viewBox="0 0 24 24" fill="none" xmlns="http://www.w3.org/2000/svg">
<path d="M20.25 6.9375H12.1875L9.53719 4.95C9.31 4.77961 9.03367 4.6875 8.74969 4.6875H3.75C3.4019 4.6875 3.06806 4.82578 2.82192 5.07192C2.57578 5.31806 2.4375 5.6519 2.4375 6V18.75C2.4375 19.0981 2.57578 19.4319 2.82192 19.6781C3.06806 19.9242 3.4019 20.0625 3.75 20.0625H20.25C20.5981 20.0625 20.9319 19.9242 21.1781 19.6781C21.4242 19.4319 21.5625 19.0981 21.5625 18.75V8.25C21.5625 7.9019 21.4242 7.56806 21.1781 7.32192C20.9319 7.07578 20.5981 6.9375 20.25 6.9375ZM3.5625 6C3.5625 5.95027 3.58225 5.90258 3.61742 5.86742C3.65258 5.83225 3.70027 5.8125 3.75 5.8125H8.74969C8.79026 5.8125 8.82973 5.82566 8.86219 5.85L11.0625 7.5L8.86219 9.15C8.82973 9.17434 8.79026 9.1875 8.74969 9.1875H3.5625V6ZM20.4375 18.75C20.4375 18.7997 20.4177 18.8474 20.3826 18.8826C20.3474 18.9177 20.2997 18.9375 20.25 18.9375H3.75C3.70027 18.9375 3.65258 18.9177 3.61742 18.8826C3.58225 18.8474 3.5625 18.7997 3.5625 18.75V10.3125H8.74969C9.03367 10.3125 9.31 10.2204 9.53719 10.05L12.1875 8.0625H20.25C20.2997 8.0625 20.3474 8.08225 20.3826 8.11742C20.4177 8.15258 20.4375 8.20027 20.4375 8.25V18.75ZM14.8125 14.25C14.8125 14.3992 14.7532 14.5423 14.6477 14.6477C14.5423 14.7532 14.3992 14.8125 14.25 14.8125H9.75C9.60082 14.8125 9.45774 14.7532 9.35225 14.6477C9.24676 14.5423 9.1875 14.3992 9.1875 14.25C9.1875 14.1008 9.24676 13.9577 9.35225 13.8523C9.45774 13.7468 9.60082 13.6875 9.75 13.6875H14.25C14.3992 13.6875 14.5423 13.7468 14.6477 13.8523C14.7532 13.9577 14.8125 14.1008 14.8125 14.25Z" fill="#1D1A17"/>
</svg>
