<svg width="24" height="24" viewBox="0 0 24 24" fill="none" xmlns="http://www.w3.org/2000/svg">
<path d="M18.75 14.4375C18.0791 14.4372 17.4304 14.6777 16.9218 15.1153L14.52 13.2469C14.7126 12.8595 14.8127 12.4327 14.8125 12C14.8123 11.8872 14.8054 11.7745 14.7918 11.6625L16.3125 11.1563C16.6529 11.7476 17.1967 12.1951 17.8426 12.4152C18.4884 12.6354 19.1923 12.6132 19.823 12.3529C20.4538 12.0925 20.9684 11.6118 21.2709 11.0002C21.5735 10.3885 21.6433 9.68779 21.4675 9.02847C21.2917 8.36915 20.8822 7.79624 20.3153 7.41648C19.7483 7.03671 19.0627 6.876 18.3861 6.96428C17.7095 7.05257 17.088 7.38383 16.6375 7.89634C16.187 8.40885 15.9382 9.06766 15.9375 9.75002C15.9377 9.86283 15.9446 9.97552 15.9581 10.0875L14.4375 10.5938C14.14 10.0754 13.6846 9.66573 13.1379 9.4244C12.5911 9.18307 11.9815 9.12274 11.3981 9.25221L10.635 7.53658C11.2023 7.13199 11.5993 6.53117 11.7489 5.85059C11.8985 5.17 11.7902 4.4581 11.4448 3.85285C11.0995 3.24761 10.5417 2.79212 9.87967 2.57466C9.21763 2.3572 8.49843 2.39326 7.86146 2.67584C7.22449 2.95842 6.7151 3.46741 6.43202 4.10416C6.14894 4.74091 6.11232 5.46008 6.32926 6.12229C6.5462 6.78451 7.00125 7.3426 7.60623 7.68843C8.2112 8.03425 8.92302 8.14317 9.60372 7.99408L10.3668 9.70971C9.79665 10.1152 9.3986 10.7192 9.25082 11.4031C9.10304 12.087 9.2162 12.8015 9.5681 13.4063L6.93747 15.75C6.37807 15.3312 5.68309 15.135 4.98727 15.1995C4.29146 15.264 3.64435 15.5845 3.17141 16.0989C2.69847 16.6134 2.43338 17.2851 2.42753 17.9839C2.42168 18.6826 2.67548 19.3587 3.13973 19.881C3.60399 20.4033 4.24563 20.7346 4.94028 20.8107C5.63492 20.8868 6.33308 20.7023 6.89942 20.2929C7.46576 19.8836 7.85994 19.2785 8.00554 18.5951C8.15114 17.9116 8.03779 17.1984 7.68747 16.5938L10.3125 14.25C10.8235 14.6341 11.4503 14.832 12.0892 14.811C12.7281 14.7901 13.3406 14.5514 13.8253 14.1347L16.2272 16.0031C15.9561 16.5511 15.871 17.1724 15.9847 17.7731C16.0984 18.3737 16.4047 18.921 16.8572 19.332C17.3098 19.743 17.8839 19.9954 18.4927 20.0509C19.1015 20.1064 19.7118 19.9621 20.2312 19.6397C20.7506 19.3174 21.1509 18.8346 21.3714 18.2644C21.5918 17.6943 21.6206 17.0678 21.4532 16.4798C21.2857 15.8919 20.9313 15.3745 20.4436 15.006C19.9558 14.6375 19.3613 14.4379 18.75 14.4375ZM18.75 8.06252C19.0837 8.06252 19.41 8.16149 19.6875 8.34691C19.965 8.53234 20.1813 8.79589 20.309 9.10424C20.4367 9.41259 20.4702 9.75189 20.405 10.0792C20.3399 10.4066 20.1792 10.7073 19.9432 10.9433C19.7072 11.1793 19.4065 11.34 19.0792 11.4051C18.7518 11.4702 18.4125 11.4368 18.1042 11.3091C17.7958 11.1813 17.5323 10.9651 17.3469 10.6875C17.1614 10.41 17.0625 10.0838 17.0625 9.75002C17.0625 9.30247 17.2403 8.87324 17.5567 8.55678C17.8732 8.24031 18.3024 8.06252 18.75 8.06252ZM7.31247 5.25002C7.31247 4.91626 7.41144 4.59 7.59687 4.31249C7.78229 4.03499 8.04584 3.8187 8.35419 3.69097C8.66254 3.56325 9.00184 3.52983 9.32919 3.59494C9.65653 3.66006 9.95721 3.82078 10.1932 4.05678C10.4292 4.29278 10.5899 4.59346 10.655 4.9208C10.7202 5.24815 10.6867 5.58745 10.559 5.8958C10.4313 6.20415 10.215 6.4677 9.9375 6.65312C9.65999 6.83855 9.33373 6.93752 8.99997 6.93752C8.55242 6.93752 8.1232 6.75973 7.80673 6.44326C7.49026 6.12679 7.31247 5.69757 7.31247 5.25002ZM5.24997 19.6875C4.91621 19.6875 4.58995 19.5885 4.31245 19.4031C4.03494 19.2177 3.81865 18.9541 3.69092 18.6458C3.5632 18.3374 3.52978 17.9981 3.5949 17.6708C3.66001 17.3435 3.82073 17.0428 4.05673 16.8068C4.29273 16.5708 4.59341 16.4101 4.92076 16.3449C5.2481 16.2798 5.5874 16.3132 5.89575 16.441C6.2041 16.5687 6.46765 16.785 6.65308 17.0625C6.8385 17.34 6.93747 17.6663 6.93747 18C6.93747 18.4476 6.75968 18.8768 6.44321 19.1933C6.12675 19.5097 5.69752 19.6875 5.24997 19.6875ZM12 13.6875C11.6662 13.6875 11.34 13.5885 11.0624 13.4031C10.7849 13.2177 10.5686 12.9541 10.4409 12.6458C10.3132 12.3374 10.2798 11.9981 10.3449 11.6708C10.41 11.3435 10.5707 11.0428 10.8067 10.8068C11.0427 10.5708 11.3434 10.4101 11.6708 10.3449C11.9981 10.2798 12.3374 10.3133 12.6457 10.441C12.9541 10.5687 13.2177 10.785 13.4031 11.0625C13.5885 11.34 13.6875 11.6663 13.6875 12C13.6875 12.4476 13.5097 12.8768 13.1932 13.1933C12.8767 13.5097 12.4475 13.6875 12 13.6875ZM18.75 18.9375C18.4162 18.9375 18.09 18.8385 17.8124 18.6531C17.5349 18.4677 17.3186 18.2041 17.1909 17.8958C17.0632 17.5874 17.0298 17.2481 17.0949 16.9208C17.16 16.5935 17.3207 16.2928 17.5567 16.0568C17.7927 15.8208 18.0934 15.6601 18.4208 15.5949C18.7481 15.5298 19.0874 15.5632 19.3958 15.691C19.7041 15.8187 19.9677 16.035 20.1531 16.3125C20.3385 16.59 20.4375 16.9163 20.4375 17.25C20.4375 17.6976 20.2597 18.1268 19.9432 18.4433C19.6267 18.7597 19.1975 18.9375 18.75 18.9375Z" fill="#1D1A17"/>
</svg>
