<svg width="24" height="24" viewBox="0 0 24 24" fill="none" xmlns="http://www.w3.org/2000/svg">
<path d="M20.25 3.9375H3.75C3.4019 3.9375 3.06806 4.07578 2.82192 4.32192C2.57578 4.56806 2.4375 4.9019 2.4375 5.25V18.75C2.4375 19.0981 2.57578 19.4319 2.82192 19.6781C3.06806 19.9242 3.4019 20.0625 3.75 20.0625H20.25C20.5981 20.0625 20.9319 19.9242 21.1781 19.6781C21.4242 19.4319 21.5625 19.0981 21.5625 18.75V5.25C21.5625 4.9019 21.4242 4.56806 21.1781 4.32192C20.9319 4.07578 20.5981 3.9375 20.25 3.9375ZM3.75 5.0625H20.25C20.2997 5.0625 20.3474 5.08225 20.3826 5.11742C20.4177 5.15258 20.4375 5.20027 20.4375 5.25V15.3347L17.6747 12.5719C17.5528 12.45 17.4081 12.3533 17.2489 12.2873C17.0896 12.2214 16.9189 12.1874 16.7466 12.1874C16.5742 12.1874 16.4035 12.2214 16.2443 12.2873C16.085 12.3533 15.9403 12.45 15.8184 12.5719L13.8103 14.58L9.55313 10.3219C9.43125 10.2 9.28655 10.1033 9.1273 10.0373C8.96805 9.97136 8.79737 9.93741 8.625 9.93741C8.45263 9.93741 8.28195 9.97136 8.1227 10.0373C7.96345 10.1033 7.81875 10.2 7.69687 10.3219L3.5625 14.4562V5.25C3.5625 5.20027 3.58225 5.15258 3.61742 5.11742C3.65258 5.08225 3.70027 5.0625 3.75 5.0625ZM3.5625 18.75V16.0472L8.49188 11.1178C8.50931 11.1002 8.53004 11.0863 8.55289 11.0768C8.57574 11.0673 8.60025 11.0624 8.625 11.0624C8.64975 11.0624 8.67426 11.0673 8.69711 11.0768C8.71996 11.0863 8.74069 11.1002 8.75812 11.1178L16.5778 18.9375H3.75C3.70027 18.9375 3.65258 18.9177 3.61742 18.8826C3.58225 18.8474 3.5625 18.7997 3.5625 18.75ZM20.25 18.9375H18.1688L14.6063 15.375L16.6134 13.3669C16.6309 13.3494 16.6515 13.3356 16.6743 13.3262C16.6971 13.3167 16.7215 13.3119 16.7461 13.3119C16.7707 13.3119 16.7951 13.3167 16.8179 13.3262C16.8407 13.3356 16.8613 13.3494 16.8787 13.3669L20.4412 16.9294V18.75C20.4413 18.7749 20.4363 18.7996 20.4266 18.8226C20.417 18.8456 20.4028 18.8665 20.385 18.8839C20.3672 18.9014 20.3461 18.9151 20.3229 18.9243C20.2997 18.9335 20.2749 18.938 20.25 18.9375ZM13.6875 9.375C13.6875 9.18958 13.7425 9.00832 13.8455 8.85415C13.9485 8.69998 14.0949 8.57982 14.2662 8.50886C14.4375 8.43791 14.626 8.41934 14.8079 8.45551C14.9898 8.49169 15.1568 8.58098 15.2879 8.71209C15.419 8.8432 15.5083 9.01025 15.5445 9.1921C15.5807 9.37396 15.5621 9.56246 15.4911 9.73377C15.4202 9.90507 15.3 10.0515 15.1458 10.1545C14.9917 10.2575 14.8104 10.3125 14.625 10.3125C14.3764 10.3125 14.1379 10.2137 13.9621 10.0379C13.7863 9.8621 13.6875 9.62364 13.6875 9.375Z" fill="#1D1A17"/>
</svg>
