<svg width="24" height="24" viewBox="0 0 24 24" fill="none" xmlns="http://www.w3.org/2000/svg">
<path d="M16.3125 21.75C16.3125 21.8992 16.2532 22.0423 16.1478 22.1478C16.0423 22.2533 15.8992 22.3125 15.75 22.3125H8.25C8.10082 22.3125 7.95775 22.2533 7.85226 22.1478C7.74677 22.0423 7.6875 21.8992 7.6875 21.75C7.6875 21.6008 7.74677 21.4578 7.85226 21.3523C7.95775 21.2468 8.10082 21.1875 8.25 21.1875H15.75C15.8992 21.1875 16.0423 21.2468 16.1478 21.3523C16.2532 21.4578 16.3125 21.6008 16.3125 21.75ZM20.0625 9.75002C20.0657 10.972 19.7896 12.1785 19.2554 13.2775C18.7211 14.3765 17.9429 15.3389 16.98 16.0913C16.7735 16.25 16.606 16.4538 16.4904 16.6871C16.3747 16.9204 16.3138 17.1771 16.3125 17.4375V18C16.3125 18.3481 16.1742 18.682 15.9281 18.9281C15.6819 19.1742 15.3481 19.3125 15 19.3125H9C8.65191 19.3125 8.31807 19.1742 8.07193 18.9281C7.82578 18.682 7.6875 18.3481 7.6875 18V17.4375C7.68725 17.1798 7.62797 16.9256 7.51421 16.6943C7.40046 16.4631 7.23525 16.2609 7.03125 16.1035C6.07133 15.3559 5.29398 14.3998 4.75801 13.3075C4.22203 12.2153 3.94145 11.0154 3.9375 9.79877C3.91313 5.42908 7.44282 1.79252 11.8059 1.68752C12.8809 1.66163 13.9503 1.85105 14.951 2.24463C15.9517 2.6382 16.8635 3.22798 17.6329 3.97924C18.4022 4.73051 19.0135 5.62808 19.4308 6.61914C19.848 7.61019 20.0628 8.6747 20.0625 9.75002ZM18.9375 9.75002C18.9378 8.82468 18.7529 7.90863 18.3938 7.05581C18.0347 6.20298 17.5087 5.43062 16.8466 4.78417C16.1845 4.13772 15.3998 3.63025 14.5386 3.29165C13.6775 2.95304 12.7573 2.79013 11.8322 2.81252C8.07844 2.90627 5.04188 6.03189 5.0625 9.78939C5.06606 10.8364 5.30759 11.8688 5.76885 12.8087C6.23011 13.7486 6.89902 14.5713 7.725 15.2147C8.06418 15.4774 8.33859 15.8144 8.52712 16.1997C8.71565 16.5851 8.81328 17.0085 8.8125 17.4375V18C8.8125 18.0497 8.83226 18.0974 8.86742 18.1326C8.90258 18.1678 8.95028 18.1875 9 18.1875H11.4375V13.7335L8.6025 10.8975C8.50314 10.7909 8.44905 10.6499 8.45162 10.5041C8.45419 10.3584 8.51323 10.2194 8.61629 10.1163C8.71935 10.0132 8.85839 9.95421 9.00411 9.95164C9.14984 9.94906 9.29087 10.0032 9.3975 10.1025L12 12.705L14.6025 10.1025C14.7091 10.0032 14.8502 9.94906 14.9959 9.95164C15.1416 9.95421 15.2807 10.0132 15.3837 10.1163C15.4868 10.2194 15.5458 10.3584 15.5484 10.5041C15.551 10.6499 15.4969 10.7909 15.3975 10.8975L12.5625 13.7335V18.1875H15C15.0497 18.1875 15.0974 18.1678 15.1326 18.1326C15.1677 18.0974 15.1875 18.0497 15.1875 18V17.4375C15.1887 17.007 15.2881 16.5823 15.4781 16.196C15.6682 15.8096 15.944 15.4718 16.2844 15.2081C17.1134 14.5608 17.7835 13.7325 18.2433 12.7865C18.7032 11.8405 18.9406 10.8019 18.9375 9.75002Z" fill="#1D1A17"/>
</svg>
