<svg width="24" height="24" viewBox="0 0 24 24" fill="none" xmlns="http://www.w3.org/2000/svg">
<path d="M17.6691 11.625C17.7203 11.6797 17.7601 11.7441 17.7862 11.8144C17.8122 11.8847 17.8239 11.9594 17.8206 12.0343C17.8173 12.1092 17.7991 12.1827 17.767 12.2504C17.7349 12.3182 17.6896 12.3788 17.6337 12.4288C17.5779 12.4788 17.5126 12.5171 17.4417 12.5415C17.3708 12.5659 17.2958 12.5759 17.221 12.5709C17.1462 12.5659 17.0732 12.546 17.0062 12.5123C16.9392 12.4787 16.8796 12.432 16.8309 12.375C16.5441 12.0544 15.9178 11.8125 15.375 11.8125C14.8322 11.8125 14.2059 12.0544 13.9191 12.375C13.8186 12.4822 13.6801 12.5458 13.5333 12.5523C13.3865 12.5587 13.243 12.5075 13.1335 12.4095C13.024 12.3115 12.9572 12.1746 12.9474 12.028C12.9376 11.8813 12.9855 11.7367 13.0809 11.625C13.5825 11.0625 14.505 10.6875 15.375 10.6875C16.245 10.6875 17.1675 11.0625 17.6691 11.625ZM10.0809 12.375C10.1296 12.432 10.1892 12.4787 10.2562 12.5123C10.3232 12.546 10.3962 12.5659 10.471 12.5709C10.5458 12.5759 10.6208 12.5659 10.6917 12.5415C10.7626 12.5171 10.8279 12.4788 10.8837 12.4288C10.9396 12.3788 10.9849 12.3182 11.017 12.2504C11.0491 12.1827 11.0673 12.1092 11.0706 12.0343C11.0739 11.9594 11.0622 11.8847 11.0362 11.8144C11.0101 11.7441 10.9703 11.6797 10.9191 11.625C10.4175 11.0625 9.495 10.6875 8.625 10.6875C7.755 10.6875 6.8325 11.0625 6.33094 11.625C6.27968 11.6797 6.23987 11.7441 6.21384 11.8144C6.18782 11.8847 6.17611 11.9594 6.1794 12.0343C6.18269 12.1092 6.20092 12.1827 6.23301 12.2504C6.2651 12.3182 6.3104 12.3788 6.36626 12.4288C6.42212 12.4788 6.48741 12.5171 6.55828 12.5415C6.62916 12.5659 6.7042 12.5759 6.77899 12.5709C6.85378 12.5659 6.92682 12.546 6.9938 12.5123C7.06079 12.4787 7.12038 12.432 7.16906 12.375C7.45594 12.0544 8.08219 11.8125 8.625 11.8125C9.16781 11.8125 9.79406 12.0544 10.0809 12.375ZM15.5869 15.3215C15.5307 15.2736 15.4656 15.2372 15.3953 15.2144C15.325 15.1916 15.251 15.1828 15.1773 15.1887C15.1036 15.1945 15.0319 15.2148 14.9661 15.2484C14.9002 15.2819 14.8417 15.3281 14.7938 15.3844C14.4515 15.7925 14.0241 16.1207 13.5414 16.3458C13.0587 16.571 12.5326 16.6877 12 16.6877C11.4674 16.6877 10.9413 16.571 10.4586 16.3458C9.97593 16.1207 9.54846 15.7925 9.20625 15.3844C9.1583 15.3282 9.09974 15.282 9.03393 15.2484C8.96812 15.2148 8.89635 15.1945 8.8227 15.1887C8.74905 15.1829 8.67497 15.1916 8.6047 15.2144C8.53442 15.2372 8.46933 15.2736 8.41313 15.3215C8.35692 15.3695 8.31072 15.4281 8.27714 15.4939C8.24357 15.5597 8.22329 15.6315 8.21746 15.7051C8.21162 15.7787 8.22036 15.8528 8.24315 15.9231C8.26595 15.9934 8.30236 16.0585 8.35031 16.1147C8.79824 16.6465 9.35697 17.0739 9.98739 17.3672C10.6178 17.6604 11.3047 17.8124 12 17.8124C12.6953 17.8124 13.3822 17.6604 14.0126 17.3672C14.643 17.0739 15.2018 16.6465 15.6497 16.1147C15.6976 16.0585 15.7341 15.9934 15.7569 15.9231C15.7797 15.8528 15.7884 15.7787 15.7826 15.7051C15.7767 15.6314 15.7565 15.5597 15.7229 15.4939C15.6893 15.428 15.6431 15.3695 15.5869 15.3215ZM20.8125 4.49998V9.72842C20.8125 13.0519 19.9191 16.184 18.2972 18.5465C16.6312 20.9756 14.3944 22.3125 12 22.3125C9.60563 22.3125 7.36875 20.9756 5.70281 18.5475C4.08094 16.185 3.1875 13.0528 3.1875 9.72936V4.49998C3.18831 4.28711 3.24089 4.07763 3.34071 3.8896C3.44052 3.70158 3.58457 3.54065 3.76043 3.4207C3.9363 3.30075 4.1387 3.22538 4.35018 3.20108C4.56167 3.17679 4.77589 3.20429 4.97438 3.28123C6.30469 3.79311 8.98688 4.65936 12 4.65936C15.0131 4.65936 17.6953 3.79311 19.0256 3.28123C19.2241 3.20429 19.4383 3.17679 19.6498 3.20108C19.8613 3.22538 20.0637 3.30075 20.2396 3.4207C20.4154 3.54065 20.5595 3.70158 20.6593 3.8896C20.7591 4.07763 20.8117 4.28711 20.8125 4.49998ZM19.6875 4.49998C19.6877 4.46936 19.6803 4.43916 19.6661 4.41203C19.6519 4.3849 19.6312 4.36166 19.6059 4.34436C19.581 4.32672 19.5521 4.31566 19.5217 4.31222C19.4914 4.30878 19.4607 4.31306 19.4325 4.32467C18.0291 4.87498 15.1969 5.78436 12 5.78436C8.80313 5.78436 5.97094 4.87498 4.5675 4.32561C4.53916 4.31458 4.50857 4.31061 4.47835 4.31404C4.44814 4.31747 4.41921 4.3282 4.39406 4.3453C4.36892 4.36251 4.34836 4.3856 4.33414 4.41255C4.31993 4.4395 4.3125 4.46951 4.3125 4.49998V9.72748C4.3125 16.0472 7.76156 21.1875 12 21.1875C16.2384 21.1875 19.6875 16.0472 19.6875 9.72936V4.49998Z" fill="#1D1A17"/>
</svg>
