<svg width="24" height="24" viewBox="0 0 24 24" fill="none" xmlns="http://www.w3.org/2000/svg">
<path d="M19.4062 3.1875H4.59375C4.22079 3.1875 3.8631 3.33566 3.59938 3.59938C3.33566 3.8631 3.1875 4.22079 3.1875 4.59375V9.20719C3.18757 9.47708 3.26531 9.74125 3.41143 9.96816C3.55756 10.1951 3.76589 10.3751 4.01156 10.4869L10.2366 13.3125C9.33572 13.7162 8.60062 14.4167 8.15404 15.297C7.70746 16.1774 7.57642 17.1843 7.78281 18.1496C7.9892 19.115 8.52052 19.9803 9.28805 20.601C10.0556 21.2218 11.0129 21.5605 12 21.5605C12.9871 21.5605 13.9444 21.2218 14.7119 20.601C15.4795 19.9803 16.0108 19.115 16.2172 18.1496C16.4236 17.1843 16.2925 16.1774 15.846 15.297C15.3994 14.4167 14.6643 13.7162 13.7634 13.3125L19.9884 10.4831C20.2335 10.3717 20.4415 10.1922 20.5876 9.96598C20.7336 9.7398 20.8117 9.47644 20.8125 9.20719V4.59375C20.8125 4.22079 20.6643 3.8631 20.4006 3.59938C20.1369 3.33566 19.7792 3.1875 19.4062 3.1875ZM15.1875 4.3125V11.4375L12 12.8859L8.8125 11.4375V4.3125H15.1875ZM4.3125 9.20719V4.59375C4.3125 4.51916 4.34213 4.44762 4.39488 4.39488C4.44762 4.34213 4.51916 4.3125 4.59375 4.3125H7.6875V10.9219L4.4775 9.46313C4.42833 9.44081 4.38662 9.4048 4.35737 9.35942C4.32811 9.31403 4.31253 9.26119 4.3125 9.20719ZM15.1875 17.25C15.1875 17.8804 15.0006 18.4967 14.6503 19.0209C14.3001 19.5451 13.8022 19.9536 13.2198 20.1949C12.6374 20.4361 11.9965 20.4992 11.3781 20.3763C10.7598 20.2533 10.1919 19.9497 9.7461 19.5039C9.30032 19.0581 8.99674 18.4902 8.87375 17.8719C8.75076 17.2535 8.81388 16.6126 9.05513 16.0302C9.29639 15.4478 9.70494 14.9499 10.2291 14.5997C10.7533 14.2494 11.3696 14.0625 12 14.0625C12.8454 14.0625 13.6561 14.3983 14.2539 14.9961C14.8517 15.5939 15.1875 16.4046 15.1875 17.25ZM19.6875 9.20719C19.6875 9.26119 19.6719 9.31403 19.6426 9.35942C19.6134 9.4048 19.5717 9.44081 19.5225 9.46313L16.3125 10.9219V4.3125H19.4062C19.4808 4.3125 19.5524 4.34213 19.6051 4.39488C19.6579 4.44762 19.6875 4.51916 19.6875 4.59375V9.20719Z" fill="#1D1A17"/>
</svg>
