<svg width="24" height="24" viewBox="0 0 24 24" fill="none" xmlns="http://www.w3.org/2000/svg">
<path d="M17.0625 10.5C17.0625 10.6492 17.0032 10.7923 16.8977 10.8977C16.7923 11.0032 16.6492 11.0625 16.5 11.0625H10.5C10.3508 11.0625 10.2077 11.0032 10.1023 10.8977C9.99676 10.7923 9.9375 10.6492 9.9375 10.5C9.9375 10.3508 9.99676 10.2077 10.1023 10.1023C10.2077 9.99676 10.3508 9.9375 10.5 9.9375H16.5C16.6492 9.9375 16.7923 9.99676 16.8977 10.1023C17.0032 10.2077 17.0625 10.3508 17.0625 10.5ZM16.5 12.9375H10.5C10.3508 12.9375 10.2077 12.9968 10.1023 13.1023C9.99676 13.2077 9.9375 13.3508 9.9375 13.5C9.9375 13.6492 9.99676 13.7923 10.1023 13.8977C10.2077 14.0032 10.3508 14.0625 10.5 14.0625H16.5C16.6492 14.0625 16.7923 14.0032 16.8977 13.8977C17.0032 13.7923 17.0625 13.6492 17.0625 13.5C17.0625 13.3508 17.0032 13.2077 16.8977 13.1023C16.7923 12.9968 16.6492 12.9375 16.5 12.9375ZM20.8125 4.5V19.5C20.8125 19.8481 20.6742 20.1819 20.4281 20.4281C20.1819 20.6742 19.8481 20.8125 19.5 20.8125H4.5C4.1519 20.8125 3.81806 20.6742 3.57192 20.4281C3.32578 20.1819 3.1875 19.8481 3.1875 19.5V4.5C3.1875 4.1519 3.32578 3.81806 3.57192 3.57192C3.81806 3.32578 4.1519 3.1875 4.5 3.1875H19.5C19.8481 3.1875 20.1819 3.32578 20.4281 3.57192C20.6742 3.81806 20.8125 4.1519 20.8125 4.5ZM4.5 19.6875H6.9375V4.3125H4.5C4.45027 4.3125 4.40258 4.33225 4.36742 4.36742C4.33225 4.40258 4.3125 4.45027 4.3125 4.5V19.5C4.3125 19.5497 4.33225 19.5974 4.36742 19.6326C4.40258 19.6677 4.45027 19.6875 4.5 19.6875ZM19.6875 4.5C19.6875 4.45027 19.6677 4.40258 19.6326 4.36742C19.5974 4.33225 19.5497 4.3125 19.5 4.3125H8.0625V19.6875H19.5C19.5497 19.6875 19.5974 19.6677 19.6326 19.6326C19.6677 19.5974 19.6875 19.5497 19.6875 19.5V4.5Z" fill="#1D1A17"/>
</svg>
