<svg width="1312" height="244" viewBox="0 0 1312 244" fill="none" xmlns="http://www.w3.org/2000/svg">
<g clip-path="url(#clip0_13_160)">
<g clip-path="url(#clip1_13_160)">
<rect width="365" height="123" fill="#FFDF8B"/>
<path fill-rule="evenodd" clip-rule="evenodd" d="M0 122.999C33.4392 122.812 60.4896 95.3496 60.4896 61.5C60.4896 27.6504 33.4392 0.187977 0 0.000960875V0H121.323C87.7257 0 60.4897 27.5345 60.4897 61.5C60.4897 95.4655 87.7257 123 121.323 123H0V122.999ZM121.667 122.999V123H121.323C121.438 123 121.552 123 121.667 122.999ZM121.667 0.000960864C121.552 0.000320567 121.438 0 121.323 0H121.667V0.000960864Z" fill="#F7AB37"/>
<path fill-rule="evenodd" clip-rule="evenodd" d="M182.5 -61.1526C148.903 -61.1526 121.667 -33.9166 121.667 -0.319237V1.01406C121.667 34.6114 148.903 61.8474 182.5 61.8474C148.903 61.8474 121.667 89.0834 121.667 122.681V124.014C121.667 157.611 148.903 184.847 182.5 184.847C216.097 184.847 243.333 157.611 243.333 124.014V122.681C243.333 89.0834 216.097 61.8474 182.5 61.8474C216.097 61.8474 243.333 34.6114 243.333 1.01406V-0.319237C243.333 -33.9166 216.097 -61.1526 182.5 -61.1526Z" fill="#479BB1"/>
<path fill-rule="evenodd" clip-rule="evenodd" d="M304.167 -61.1526C270.569 -61.1526 243.333 -33.9166 243.333 -0.319237V1.01406C243.333 34.6114 270.569 61.8474 304.167 61.8474C270.569 61.8474 243.333 89.0834 243.333 122.681V124.014C243.333 157.611 270.569 184.847 304.167 184.847C337.764 184.847 365 157.611 365 124.014V122.681C365 89.0834 337.764 61.8474 304.167 61.8474C337.764 61.8474 365 34.6114 365 1.01406V-0.319237C365 -33.9166 337.764 -61.1526 304.167 -61.1526Z" fill="#FA8958"/>
</g>
<g clip-path="url(#clip2_13_160)">
<rect width="367" height="123" transform="translate(365)" fill="#FFDF8B"/>
<path fill-rule="evenodd" clip-rule="evenodd" d="M365 122.999C398.622 122.812 425.821 95.3496 425.821 61.5C425.821 27.6504 398.622 0.187974 365 0.00096085V0H486.988C453.206 0 425.821 27.5345 425.821 61.5C425.821 95.4655 453.206 123 486.988 123H365V122.999ZM487.333 122.999V123H486.988C487.103 123 487.218 123 487.333 122.999ZM487.333 0.000960787C487.218 0.000320542 487.103 0 486.988 0H487.333V0.000960787Z" fill="#F7AB37"/>
<path fill-rule="evenodd" clip-rule="evenodd" d="M548.5 -61.1526C514.719 -61.1526 487.333 -33.434 487.333 0.347412C487.333 34.1288 514.719 61.8474 548.5 61.8474C514.719 61.8474 487.333 89.566 487.333 123.347C487.333 157.129 514.719 184.847 548.5 184.847C582.281 184.847 609.667 157.129 609.667 123.347C609.667 89.566 582.281 61.8474 548.5 61.8474C582.281 61.8474 609.667 34.1288 609.667 0.347412C609.667 -33.434 582.281 -61.1526 548.5 -61.1526Z" fill="#479BB1"/>
<path fill-rule="evenodd" clip-rule="evenodd" d="M670.833 -61.1526C637.052 -61.1526 609.667 -33.434 609.667 0.347412C609.667 34.1288 637.052 61.8474 670.833 61.8474C637.052 61.8474 609.667 89.566 609.667 123.347C609.667 157.129 637.052 184.847 670.833 184.847C704.615 184.847 732 157.129 732 123.347C732 89.566 704.615 61.8474 670.833 61.8474C704.615 61.8474 732 34.1288 732 0.347412C732 -33.434 704.615 -61.1526 670.833 -61.1526Z" fill="#FA8958"/>
</g>
<g clip-path="url(#clip3_13_160)">
<rect width="365" height="123" transform="translate(732)" fill="#FFDF8B"/>
<path fill-rule="evenodd" clip-rule="evenodd" d="M732 122.999C765.439 122.812 792.49 95.3496 792.49 61.5C792.49 27.6504 765.439 0.187977 732 0.000960875V0H853.323C819.726 0 792.49 27.5345 792.49 61.5C792.49 95.4655 819.726 123 853.323 123H732V122.999ZM853.667 122.999V123H853.323C853.438 123 853.552 123 853.667 122.999ZM853.667 0.000960864C853.552 0.000320567 853.438 0 853.323 0H853.667V0.000960864Z" fill="#F7AB37"/>
<path fill-rule="evenodd" clip-rule="evenodd" d="M914.5 -61.1526C880.903 -61.1526 853.667 -33.9166 853.667 -0.319237V1.01406C853.667 34.6114 880.903 61.8474 914.5 61.8474C880.903 61.8474 853.667 89.0834 853.667 122.681V124.014C853.667 157.611 880.903 184.847 914.5 184.847C948.097 184.847 975.333 157.611 975.333 124.014V122.681C975.333 89.0834 948.097 61.8474 914.5 61.8474C948.097 61.8474 975.333 34.6114 975.333 1.01406V-0.319237C975.333 -33.9166 948.097 -61.1526 914.5 -61.1526Z" fill="#479BB1"/>
<path fill-rule="evenodd" clip-rule="evenodd" d="M1036.17 -61.1526C1002.57 -61.1526 975.333 -33.9166 975.333 -0.319237V1.01406C975.333 34.6114 1002.57 61.8474 1036.17 61.8474C1002.57 61.8474 975.333 89.0834 975.333 122.681V124.014C975.333 157.611 1002.57 184.847 1036.17 184.847C1069.76 184.847 1097 157.611 1097 124.014V122.681C1097 89.0834 1069.76 61.8474 1036.17 61.8474C1069.76 61.8474 1097 34.6114 1097 1.01406V-0.319237C1097 -33.9166 1069.76 -61.1526 1036.17 -61.1526Z" fill="#FA8958"/>
</g>
<g clip-path="url(#clip4_13_160)">
<rect width="365" height="123" transform="translate(1097)" fill="#FFDF8B"/>
<path fill-rule="evenodd" clip-rule="evenodd" d="M1097 122.999C1130.44 122.812 1157.49 95.3496 1157.49 61.5C1157.49 27.6504 1130.44 0.187976 1097 0.000960865V0H1218.32C1184.73 0 1157.49 27.5345 1157.49 61.5C1157.49 95.4655 1184.73 123 1218.32 123H1097V122.999ZM1218.67 122.999V123H1218.32C1218.44 123 1218.55 123 1218.67 122.999ZM1218.67 0.000960822C1218.55 0.000320553 1218.44 0 1218.32 0H1218.67V0.000960822Z" fill="#F7AB37"/>
<path fill-rule="evenodd" clip-rule="evenodd" d="M1279.5 -61.1526C1245.9 -61.1526 1218.67 -33.9166 1218.67 -0.319237V1.01406C1218.67 34.6114 1245.9 61.8474 1279.5 61.8474C1245.9 61.8474 1218.67 89.0834 1218.67 122.681V124.014C1218.67 157.611 1245.9 184.847 1279.5 184.847C1313.1 184.847 1340.33 157.611 1340.33 124.014V122.681C1340.33 89.0834 1313.1 61.8474 1279.5 61.8474C1313.1 61.8474 1340.33 34.6114 1340.33 1.01406V-0.319237C1340.33 -33.9166 1313.1 -61.1526 1279.5 -61.1526Z" fill="#479BB1"/>
</g>
<g clip-path="url(#clip5_13_160)">
<rect width="365" height="121" transform="translate(0 123)" fill="#FFDF8B"/>
<path fill-rule="evenodd" clip-rule="evenodd" d="M121.666 244L121.667 244L121.667 123.342L121.667 123L121.666 123C121.666 123.114 121.667 123.228 121.667 123.342C121.667 156.755 94.4307 183.842 60.8333 183.842C27.236 183.842 -3.8136e-06 156.755 -5.27414e-06 123.342C-5.27912e-06 123.228 0.000311821 123.114 0.000945196 123L-5.28908e-06 123L-5.27414e-06 123.342L0 244L0.000950463 244C0.185938 210.744 27.3506 183.842 60.8333 183.842C94.316 183.842 121.481 210.744 121.666 244Z" fill="#479BB1"/>
<g clip-path="url(#clip6_13_160)">
<rect x="60.8335" y="243.658" width="121" height="121.667" rx="60.5" transform="rotate(-90 60.8335 243.658)" fill="#FA8958"/>
<rect x="182.5" y="243.658" width="121" height="121.667" rx="60.5" transform="rotate(-90 182.5 243.658)" fill="#FA8958"/>
</g>
<g clip-path="url(#clip7_13_160)">
<rect x="243.333" y="62.5" width="121.667" height="121" rx="60.5" fill="#F7AB37"/>
<rect x="243.333" y="183.5" width="121.667" height="121" rx="60.5" fill="#F7AB37"/>
</g>
</g>
<g clip-path="url(#clip8_13_160)">
<rect width="367" height="121" transform="translate(365 123)" fill="#FFDF8B"/>
<path fill-rule="evenodd" clip-rule="evenodd" d="M487.332 244L487.333 244L487.333 123.342L487.333 123L487.332 123C487.333 123.114 487.333 123.228 487.333 123.342C487.333 156.755 459.948 183.842 426.167 183.842C392.385 183.842 365 156.755 365 123.342C365 123.228 365 123.114 365.001 123L365 123L365 123.342L365 244L365.001 244C365.187 210.744 392.501 183.842 426.167 183.842C459.833 183.842 487.146 210.744 487.332 244Z" fill="#479BB1"/>
<g clip-path="url(#clip9_13_160)">
<rect x="426.167" y="243.658" width="121" height="122.333" rx="60.5" transform="rotate(-90 426.167 243.658)" fill="#FA8958"/>
<rect x="548.5" y="243.658" width="121" height="122.333" rx="60.5" transform="rotate(-90 548.5 243.658)" fill="#FA8958"/>
</g>
<g clip-path="url(#clip10_13_160)">
<rect x="609.667" y="62.5" width="122.333" height="121" rx="60.5" fill="#F7AB37"/>
<rect x="609.667" y="183.5" width="122.333" height="121" rx="60.5" fill="#F7AB37"/>
</g>
</g>
<g clip-path="url(#clip11_13_160)">
<rect width="365" height="121" transform="translate(732 123)" fill="#FFDF8B"/>
<path fill-rule="evenodd" clip-rule="evenodd" d="M853.666 244L853.667 244L853.667 123.342L853.667 123L853.666 123C853.666 123.114 853.667 123.228 853.667 123.342C853.667 156.755 826.431 183.842 792.833 183.842C759.236 183.842 732 156.755 732 123.342C732 123.228 732 123.114 732.001 123L732 123L732 123.342L732 244L732.001 244C732.186 210.744 759.351 183.842 792.833 183.842C826.316 183.842 853.481 210.744 853.666 244Z" fill="#479BB1"/>
<g clip-path="url(#clip12_13_160)">
<rect x="792.833" y="243.658" width="121" height="121.667" rx="60.5" transform="rotate(-90 792.833 243.658)" fill="#FA8958"/>
<rect x="914.5" y="243.658" width="121" height="121.667" rx="60.5" transform="rotate(-90 914.5 243.658)" fill="#FA8958"/>
</g>
<g clip-path="url(#clip13_13_160)">
<rect x="975.333" y="62.5" width="121.667" height="121" rx="60.5" fill="#F7AB37"/>
<rect x="975.333" y="183.5" width="121.667" height="121" rx="60.5" fill="#F7AB37"/>
</g>
</g>
<g clip-path="url(#clip14_13_160)">
<rect width="365" height="121" transform="translate(1097 123)" fill="#FFDF8B"/>
<path fill-rule="evenodd" clip-rule="evenodd" d="M1218.67 244L1218.67 244L1218.67 123.342L1218.67 123L1218.67 123C1218.67 123.114 1218.67 123.228 1218.67 123.342C1218.67 156.755 1191.43 183.842 1157.83 183.842C1124.24 183.842 1097 156.755 1097 123.342C1097 123.228 1097 123.114 1097 123L1097 123L1097 123.342L1097 244L1097 244C1097.19 210.744 1124.35 183.842 1157.83 183.842C1191.32 183.842 1218.48 210.744 1218.67 244Z" fill="#479BB1"/>
<g clip-path="url(#clip15_13_160)">
<rect x="1157.83" y="243.658" width="121" height="121.667" rx="60.5" transform="rotate(-90 1157.83 243.658)" fill="#FA8958"/>
<rect x="1279.5" y="243.658" width="121" height="121.667" rx="60.5" transform="rotate(-90 1279.5 243.658)" fill="#FA8958"/>
</g>
</g>
</g>
<defs>
<clipPath id="clip0_13_160">
<rect width="1312" height="244" fill="white"/>
</clipPath>
<clipPath id="clip1_13_160">
<rect width="365" height="123" fill="white"/>
</clipPath>
<clipPath id="clip2_13_160">
<rect width="367" height="123" fill="white" transform="translate(365)"/>
</clipPath>
<clipPath id="clip3_13_160">
<rect width="365" height="123" fill="white" transform="translate(732)"/>
</clipPath>
<clipPath id="clip4_13_160">
<rect width="365" height="123" fill="white" transform="translate(1097)"/>
</clipPath>
<clipPath id="clip5_13_160">
<rect width="365" height="121" fill="white" transform="translate(0 123)"/>
</clipPath>
<clipPath id="clip6_13_160">
<rect width="121.667" height="121" fill="white" transform="translate(121.667 123)"/>
</clipPath>
<clipPath id="clip7_13_160">
<rect width="121" height="121.667" fill="white" transform="translate(365 123) rotate(90)"/>
</clipPath>
<clipPath id="clip8_13_160">
<rect width="367" height="121" fill="white" transform="translate(365 123)"/>
</clipPath>
<clipPath id="clip9_13_160">
<rect width="122.333" height="121" fill="white" transform="translate(487.333 123)"/>
</clipPath>
<clipPath id="clip10_13_160">
<rect width="121" height="122.333" fill="white" transform="translate(732 123) rotate(90)"/>
</clipPath>
<clipPath id="clip11_13_160">
<rect width="365" height="121" fill="white" transform="translate(732 123)"/>
</clipPath>
<clipPath id="clip12_13_160">
<rect width="121.667" height="121" fill="white" transform="translate(853.667 123)"/>
</clipPath>
<clipPath id="clip13_13_160">
<rect width="121" height="121.667" fill="white" transform="translate(1097 123) rotate(90)"/>
</clipPath>
<clipPath id="clip14_13_160">
<rect width="365" height="121" fill="white" transform="translate(1097 123)"/>
</clipPath>
<clipPath id="clip15_13_160">
<rect width="121.667" height="121" fill="white" transform="translate(1218.67 123)"/>
</clipPath>
</defs>
</svg>
