<svg width="1312" height="244" viewBox="0 0 1312 244" fill="none" xmlns="http://www.w3.org/2000/svg">
<g clip-path="url(#clip0_29_107003)">
<g clip-path="url(#clip1_29_107003)">
<path d="M244.009 -0.000244141H122.009V121.961H244.009V-0.000244141Z" fill="#479BB1"/>
<path fill-rule="evenodd" clip-rule="evenodd" d="M244 122H122C122 54.8802 176.91 -0.000244141 244 -0.000244141V122Z" fill="#F9E7B8"/>
<path fill-rule="evenodd" clip-rule="evenodd" d="M244 122.001H183C183.041 105.834 189.481 90.3402 200.911 78.9063C212.341 67.4724 227.833 61.0281 244 60.9817V122.001Z" fill="#479BB1"/>
<path d="M488 -0.000244141H366V121.961H488V-0.000244141Z" fill="#F9E7B8"/>
<path fill-rule="evenodd" clip-rule="evenodd" d="M366 122H427.02C426.981 105.827 420.54 90.3266 409.106 78.8884C397.671 67.4503 382.173 61.0047 366 60.9609V122Z" fill="#885FA0"/>
<path fill-rule="evenodd" clip-rule="evenodd" d="M487.999 122H426.98C427.021 105.827 433.462 90.3288 444.896 78.8913C456.33 67.4537 471.827 61.0073 487.999 60.9609V122Z" fill="#885FA0"/>
<path fill-rule="evenodd" clip-rule="evenodd" d="M366 -0.000244141H427.02C426.971 16.1663 420.525 31.6564 409.092 43.0861C397.659 54.5158 382.167 60.956 366 60.9998V-0.000244141Z" fill="#885FA0"/>
<path fill-rule="evenodd" clip-rule="evenodd" d="M487.999 -0.000244141H426.98C427.029 16.1663 433.474 31.6564 444.907 43.0861C456.34 54.5158 471.833 60.956 487.999 60.9998V-0.000244141Z" fill="#885FA0"/>
<path d="M610 0.0107422H488V121.972H610V0.0107422Z" fill="#F9E7B8"/>
<path fill-rule="evenodd" clip-rule="evenodd" d="M488 -0.000244141H610V122C542.9 122 488 67.0802 488 -0.000244141Z" fill="#FA8958"/>
<path d="M732 -0.000244141H610V121.961H732V-0.000244141Z" fill="#FA8958"/>
<path fill-rule="evenodd" clip-rule="evenodd" d="M732 -0.000244141H610C610 67.0705 664.9 122 732 122V-0.000244141Z" fill="#885FA0"/>
<path fill-rule="evenodd" clip-rule="evenodd" d="M732 -0.000244141H671C671.048 16.1611 677.492 31.6463 688.921 43.0723C700.351 54.4983 715.838 60.9365 732 60.9802V-0.000244141Z" fill="#479BB1"/>
<path d="M366.009 -0.000244141H244.009V121.961H366.009V-0.000244141Z" fill="#F9E7B8"/>
<path fill-rule="evenodd" clip-rule="evenodd" d="M244 122H366C366 54.8802 311.1 -0.000244141 244 -0.000244141V122Z" fill="#479BB1"/>
<path fill-rule="evenodd" clip-rule="evenodd" d="M244 122.001H305C304.958 105.834 298.519 90.3402 287.089 78.9063C275.658 67.4724 260.167 61.0281 244 60.9817V122.001Z" fill="#F9E7B8"/>
<path d="M122 -0.000244141H0V121.961H122V-0.000244141Z" fill="#FA8958"/>
<path d="M121.992 61.1216C122.075 27.4431 94.831 0.0747352 61.1417 -0.00741504C27.4524 -0.0895653 0.0750312 27.1457 -0.00742968 60.8241C-0.0898905 94.5026 27.1538 121.871 60.8431 121.953C94.5323 122.035 121.91 94.8001 121.992 61.1216Z" fill="#F9E7B8"/>
<path d="M90.5951 61.062C90.6379 44.7187 77.4194 31.4351 61.0706 31.3923C44.7219 31.3495 31.434 44.5637 31.3912 60.9071C31.3484 77.2504 44.567 90.534 60.9157 90.5768C77.2644 90.6196 90.5524 77.4054 90.5951 61.062Z" fill="#885FA0"/>
<path d="M731.99 121.961H610V243.922H731.99V121.961Z" fill="#479BB1"/>
<path fill-rule="evenodd" clip-rule="evenodd" d="M610 122H671.019C670.96 138.16 664.51 153.64 653.078 165.061C641.646 176.483 626.159 182.917 610 182.961V122Z" fill="#F9E7B8"/>
<path fill-rule="evenodd" clip-rule="evenodd" d="M732 122H670.98C671.039 138.16 677.489 153.64 688.921 165.061C700.354 176.483 715.84 182.917 732 182.961V122Z" fill="#F9E7B8"/>
<path fill-rule="evenodd" clip-rule="evenodd" d="M610 243.923H671.019C670.97 227.756 664.525 212.266 653.092 200.836C641.659 189.407 626.166 182.966 610 182.923V243.923Z" fill="#F9E7B8"/>
<path fill-rule="evenodd" clip-rule="evenodd" d="M732 243.923H670.98C671.029 227.756 677.474 212.266 688.908 200.836C700.341 189.407 715.833 182.966 732 182.923V243.923Z" fill="#F9E7B8"/>
<path d="M244 121.961H122V243.922H244V121.961Z" fill="#885FA0"/>
<path fill-rule="evenodd" clip-rule="evenodd" d="M182.999 122C199.153 122.047 214.633 128.48 226.061 139.897C237.489 151.314 243.937 166.788 243.999 182.942C243.948 199.102 237.504 214.586 226.075 226.011C214.646 237.437 199.16 243.876 182.999 243.922C166.84 243.878 151.354 237.442 139.924 226.018C128.495 214.594 122.051 199.111 121.999 182.951C122.056 166.795 128.502 151.318 139.931 139.898C151.36 128.478 166.843 122.044 182.999 122Z" fill="#F9E7B8"/>
<path d="M610 121.961H488V243.922H610V121.961Z" fill="#479BB1"/>
<path d="M549.145 243.947C582.834 243.865 610.078 216.496 609.996 182.818C609.914 149.139 582.536 121.904 548.847 121.986C515.158 122.069 487.914 149.437 487.996 183.116C488.078 216.794 515.456 244.029 549.145 243.947Z" fill="#F9E7B8"/>
<path d="M549.086 212.503C565.435 212.46 578.653 199.176 578.61 182.833C578.568 166.49 565.28 153.275 548.931 153.318C532.582 153.361 519.364 166.645 519.406 182.988C519.449 199.331 532.737 212.545 549.086 212.503Z" fill="#FA8958"/>
<path d="M366 121.961H244V243.922H366V121.961Z" fill="#FA8958"/>
<path fill-rule="evenodd" clip-rule="evenodd" d="M304.736 183.215C310.768 148.424 331.189 128.019 365.999 122C359.961 156.772 339.54 177.177 304.736 183.215Z" fill="#F9E7B8"/>
<path fill-rule="evenodd" clip-rule="evenodd" d="M304.736 182.677C310.768 217.468 331.189 237.883 365.999 243.921C359.961 209.13 339.54 188.715 304.736 182.677Z" fill="#F9E7B8"/>
<path fill-rule="evenodd" clip-rule="evenodd" d="M305.185 183.127C299.153 148.382 278.758 128.006 244 122C250.031 156.733 270.426 177.108 305.185 183.127Z" fill="#F9E7B8"/>
<path fill-rule="evenodd" clip-rule="evenodd" d="M305.263 182.677C299.225 217.468 278.804 237.883 244 243.921C250.038 209.13 270.459 188.715 305.263 182.677Z" fill="#F9E7B8"/>
<path d="M488 121.961H366V243.922H488V121.961Z" fill="#F9E7B8"/>
<path d="M464.703 145.258H389.297V220.644H464.703V145.258Z" fill="#885FA0"/>
<path d="M443.856 166.095H410.145V199.797H443.856V166.095Z" fill="#F9E7B8"/>
<path d="M121.99 122.107H-0.000244141V244.058H121.99V122.107Z" fill="#F9E7B8"/>
<path fill-rule="evenodd" clip-rule="evenodd" d="M122 122.107H-0.000236511V244.107C67.09 244.107 122 189.227 122 122.107Z" fill="#885FA0"/>
</g>
<g clip-path="url(#clip2_29_107003)">
<path d="M976.009 -0.000244141H854.009V121.961H976.009V-0.000244141Z" fill="#479BB1"/>
<path fill-rule="evenodd" clip-rule="evenodd" d="M976 122H854C854 54.8802 908.91 -0.000244141 976 -0.000244141V122Z" fill="#F9E7B8"/>
<path fill-rule="evenodd" clip-rule="evenodd" d="M976 122.001H915C915.041 105.834 921.481 90.3402 932.911 78.9063C944.341 67.4724 959.833 61.0281 976 60.9817V122.001Z" fill="#479BB1"/>
<path d="M1220 -0.000244141H1098V121.961H1220V-0.000244141Z" fill="#F9E7B8"/>
<path fill-rule="evenodd" clip-rule="evenodd" d="M1098 122H1159.02C1158.98 105.827 1152.54 90.3266 1141.11 78.8884C1129.67 67.4503 1114.17 61.0047 1098 60.9609V122Z" fill="#885FA0"/>
<path fill-rule="evenodd" clip-rule="evenodd" d="M1220 122H1158.98C1159.02 105.827 1165.46 90.3288 1176.9 78.8913C1188.33 67.4537 1203.83 61.0073 1220 60.9609V122Z" fill="#885FA0"/>
<path fill-rule="evenodd" clip-rule="evenodd" d="M1098 -0.000244141H1159.02C1158.97 16.1663 1152.53 31.6564 1141.09 43.0861C1129.66 54.5158 1114.17 60.956 1098 60.9998V-0.000244141Z" fill="#885FA0"/>
<path fill-rule="evenodd" clip-rule="evenodd" d="M1220 -0.000244141H1158.98C1159.03 16.1663 1165.47 31.6564 1176.91 43.0861C1188.34 54.5158 1203.83 60.956 1220 60.9998V-0.000244141Z" fill="#885FA0"/>
<path d="M1342 0.0107422H1220V121.972H1342V0.0107422Z" fill="#F9E7B8"/>
<path fill-rule="evenodd" clip-rule="evenodd" d="M1220 -0.000244141H1342V122C1274.9 122 1220 67.0802 1220 -0.000244141Z" fill="#FA8958"/>
<path d="M1098.01 -0.000244141H976.009V121.961H1098.01V-0.000244141Z" fill="#F9E7B8"/>
<path fill-rule="evenodd" clip-rule="evenodd" d="M976 122H1098C1098 54.8802 1043.1 -0.000244141 976 -0.000244141V122Z" fill="#479BB1"/>
<path fill-rule="evenodd" clip-rule="evenodd" d="M976 122.001H1037C1036.96 105.834 1030.52 90.3402 1019.09 78.9063C1007.66 67.4724 992.167 61.0281 976 60.9817V122.001Z" fill="#F9E7B8"/>
<path d="M854 -0.000244141H732V121.961H854V-0.000244141Z" fill="#FA8958"/>
<path d="M853.992 61.1216C854.075 27.4431 826.831 0.0747276 793.142 -0.00742266C759.452 -0.0895729 732.075 27.1457 731.993 60.8241C731.91 94.5026 759.154 121.871 792.843 121.953C826.532 122.035 853.91 94.8001 853.992 61.1216Z" fill="#F9E7B8"/>
<path d="M822.595 61.062C822.638 44.7187 809.419 31.4351 793.071 31.3923C776.722 31.3495 763.434 44.5637 763.391 60.9071C763.348 77.2504 776.567 90.534 792.916 90.5768C809.264 90.6196 822.552 77.4054 822.595 61.062Z" fill="#885FA0"/>
<path d="M976 121.961H854V243.922H976V121.961Z" fill="#885FA0"/>
<path fill-rule="evenodd" clip-rule="evenodd" d="M914.999 122C931.153 122.047 946.633 128.48 958.061 139.897C969.489 151.314 975.937 166.788 975.999 182.942C975.948 199.102 969.504 214.586 958.075 226.011C946.646 237.437 931.16 243.876 914.999 243.922C898.84 243.878 883.354 237.442 871.924 226.018C860.495 214.594 854.051 199.111 853.999 182.951C854.056 166.795 860.502 151.318 871.931 139.898C883.36 128.478 898.843 122.044 914.999 122Z" fill="#F9E7B8"/>
<path d="M1342 121.961H1220V243.922H1342V121.961Z" fill="#479BB1"/>
<path d="M1281.14 243.947C1314.83 243.865 1342.08 216.496 1342 182.818C1341.91 149.139 1314.54 121.904 1280.85 121.986C1247.16 122.069 1219.91 149.437 1220 183.116C1220.08 216.794 1247.46 244.029 1281.14 243.947Z" fill="#F9E7B8"/>
<path d="M1281.09 212.503C1297.43 212.46 1310.65 199.176 1310.61 182.833C1310.57 166.49 1297.28 153.275 1280.93 153.318C1264.58 153.361 1251.36 166.645 1251.41 182.988C1251.45 199.331 1264.74 212.545 1281.09 212.503Z" fill="#FA8958"/>
<path d="M1098 121.961H976V243.922H1098V121.961Z" fill="#FA8958"/>
<path fill-rule="evenodd" clip-rule="evenodd" d="M1036.74 183.215C1042.77 148.424 1063.19 128.019 1098 122C1091.96 156.772 1071.54 177.177 1036.74 183.215Z" fill="#F9E7B8"/>
<path fill-rule="evenodd" clip-rule="evenodd" d="M1036.74 182.677C1042.77 217.468 1063.19 237.883 1098 243.921C1091.96 209.13 1071.54 188.715 1036.74 182.677Z" fill="#F9E7B8"/>
<path fill-rule="evenodd" clip-rule="evenodd" d="M1037.19 183.127C1031.15 148.382 1010.76 128.006 976 122C982.032 156.733 1002.43 177.108 1037.19 183.127Z" fill="#F9E7B8"/>
<path fill-rule="evenodd" clip-rule="evenodd" d="M1037.26 182.677C1031.23 217.468 1010.8 237.883 976 243.921C982.038 209.13 1002.46 188.715 1037.26 182.677Z" fill="#F9E7B8"/>
<path d="M1220 121.961H1098V243.922H1220V121.961Z" fill="#F9E7B8"/>
<path d="M1196.7 145.259H1121.3V220.645H1196.7V145.259Z" fill="#885FA0"/>
<path d="M1175.86 166.095H1142.14V199.797H1175.86V166.095Z" fill="#F9E7B8"/>
<path d="M853.99 122.107H732V244.058H853.99V122.107Z" fill="#F9E7B8"/>
<path fill-rule="evenodd" clip-rule="evenodd" d="M732 122.107H854V244.107C786.91 244.107 732 189.227 732 122.107Z" fill="#885FA0"/>
</g>
</g>
<defs>
<clipPath id="clip0_29_107003">
<rect width="1312" height="244" fill="white"/>
</clipPath>
<clipPath id="clip1_29_107003">
<rect width="732" height="366" fill="white"/>
</clipPath>
<clipPath id="clip2_29_107003">
<rect width="732" height="366" fill="white" transform="translate(732)"/>
</clipPath>
</defs>
</svg>
