<svg width="447" height="558" viewBox="0 0 447 558" fill="none" xmlns="http://www.w3.org/2000/svg">
<g clip-path="url(#clip0_29_91309)">
<path d="M447 670.616L447 0L3.05176e-05 -1.9539e-05L1.20402e-06 670.616L447 670.616Z" fill="#F6DAE9"/>
<path d="M447 502.794L447 447.078L335.25 447.078L335.25 502.794L447 502.794Z" fill="#885FA0"/>
<path d="M223.5 558.847L223.5 446.741L111.414 446.741L111.414 558.847L223.5 558.847Z" fill="#FA8958"/>
<path d="M335.25 -4.88475e-06L447 0L447 111.769C385.282 111.769 335.25 61.7289 335.25 -4.88475e-06Z" fill="#885FA0"/>
<path d="M335.25 167.654C335.25 136.79 360.266 111.77 391.125 111.77L447 111.77L447 167.654C447 198.519 421.984 223.539 391.125 223.539C360.266 223.539 335.25 198.519 335.25 167.654Z" fill="#F7AB37"/>
<path d="M335.25 447.077L335.25 335.308C396.968 335.308 447 385.349 447 447.077L335.25 447.077Z" fill="#FA8958"/>
<path d="M335.25 111.769L335.25 0L223.5 -4.88475e-06L223.5 111.769L335.25 111.769Z" fill="#FA8958"/>
<path d="M223.5 223.539L223.5 111.77L335.25 111.77C335.25 173.498 285.218 223.539 223.5 223.539Z" fill="#FA8958"/>
<path d="M223.5 335.308L223.5 223.539C285.217 223.539 335.25 273.579 335.25 335.308L223.5 335.308Z" fill="#885FA0"/>
<path d="M223.5 335.308L335.25 335.308L335.25 447.077C273.532 447.077 223.5 397.037 223.5 335.308Z" fill="#F7AB37"/>
<path d="M223.5 558.847C223.5 497.118 273.532 447.078 335.25 447.078L335.25 558.847L223.5 558.847Z" fill="#479BB1"/>
<path d="M111.75 111.769L111.75 -4.88475e-06C173.468 -2.18696e-06 223.5 50.0405 223.5 111.769L111.75 111.769Z" fill="#479BB1"/>
<path d="M223.5 223.539L223.5 111.77L111.75 111.77L111.75 223.539L223.5 223.539Z" fill="#885FA0"/>
<path d="M223.5 335.308L223.5 223.539L167.625 223.539L167.625 335.308L223.5 335.308Z" fill="#479BB1"/>
<path d="M229.053 100.99C234.657 90.1085 243.516 81.2484 254.395 75.6429L265.173 70.0893L254.395 64.5357C243.516 58.9303 234.657 50.0701 229.053 39.1891L223.5 28.4092L217.947 39.1891C212.343 50.0701 203.484 58.9303 192.605 64.5357L181.827 70.0893L192.605 75.6429C203.484 81.2484 212.343 90.1085 217.947 100.99L223.5 111.769L229.053 100.99Z" fill="#F7AB37"/>
<path d="M340.803 589.747C346.407 578.866 355.266 570.006 366.145 564.4L376.923 558.847L366.145 553.293C355.266 547.688 346.407 538.827 340.803 527.946L335.25 517.167L329.698 527.946C324.093 538.827 315.234 547.688 304.355 553.293L293.577 558.847L304.355 564.4C315.234 570.006 324.093 578.866 329.698 589.747L335.25 600.527L340.803 589.747Z" fill="#F7AB37"/>
<path d="M229.053 184.35C234.657 173.469 243.516 164.609 254.395 159.003L265.173 153.45L254.395 147.896C243.516 142.291 234.657 133.43 229.053 122.549L223.5 111.77L217.947 122.549C212.343 133.43 203.484 142.291 192.605 147.896L181.827 153.45L192.605 159.003C203.484 164.609 212.343 173.469 217.947 184.35L223.5 195.13L229.053 184.35Z" fill="#F6DAE9"/>
<path d="M111.75 447.077L111.75 335.308L223.5 335.308C223.5 397.037 173.468 447.077 111.75 447.077Z" fill="#F7AB37"/>
<path d="M111.75 447.077L111.75 335.308L7.62939e-06 335.308L2.7438e-06 447.077L111.75 447.077Z" fill="#479BB1"/>
<path d="M5.1866e-06 558.847C6.53573e-06 527.983 25.0159 502.962 55.875 502.962L111.75 502.962C111.75 533.827 86.7341 558.847 55.875 558.847L5.1866e-06 558.847Z" fill="#885FA0"/>
<path d="M5.1866e-06 502.962C6.53573e-06 472.098 25.0159 447.078 55.875 447.078L111.75 447.078C111.75 477.942 86.7341 502.962 55.875 502.962L5.1866e-06 502.962Z" fill="#885FA0"/>
<path d="M335.25 335.308C335.25 304.444 360.266 279.423 391.125 279.423L447 279.423C447 310.288 421.984 335.308 391.125 335.308L335.25 335.308Z" fill="#479BB1"/>
<path d="M335.25 279.423C335.25 248.559 360.266 223.539 391.125 223.539L447 223.539C447 254.403 421.984 279.423 391.125 279.423L335.25 279.423Z" fill="#479BB1"/>
<path d="M5.1866e-06 223.539C6.53573e-06 192.675 25.0159 167.654 55.875 167.654L111.75 167.654C111.75 198.519 86.7341 223.539 55.875 223.539L5.1866e-06 223.539Z" fill="#FA8958"/>
<path d="M5.1866e-06 167.654C6.53573e-06 136.79 25.0159 111.77 55.875 111.77L111.75 111.77C111.75 142.634 86.7341 167.654 55.875 167.654L5.1866e-06 167.654Z" fill="#FA8958"/>
<path d="M173.01 533.862C178.614 522.981 187.473 514.121 198.352 508.515L209.13 502.962L198.352 497.408C187.473 491.803 178.614 482.943 173.01 472.062L167.457 461.282L161.904 472.062C156.3 482.943 147.441 491.803 136.562 497.408L125.784 502.962L136.562 508.515C147.441 514.121 156.3 522.981 161.904 533.862L167.457 544.642L173.01 533.862Z" fill="#F6DAE9"/>
<path d="M205.743 247.096C203.659 247.096 201.969 245.406 201.969 243.321C201.969 241.236 203.659 239.546 205.743 239.546C207.828 239.546 209.518 241.236 209.518 243.321C209.518 245.406 207.828 247.096 205.743 247.096Z" fill="#F6DAE9"/>
<path d="M201.969 266.442C201.969 268.527 203.659 270.217 205.743 270.217C207.828 270.217 209.518 268.527 209.518 266.442C209.518 264.357 207.828 262.667 205.743 262.667C203.659 262.667 201.969 264.357 201.969 266.442Z" fill="#F6DAE9"/>
<path d="M201.969 289.564C201.969 291.649 203.659 293.339 205.743 293.339C207.828 293.339 209.518 291.649 209.518 289.564C209.518 287.479 207.828 285.789 205.743 285.789C203.659 285.789 201.969 287.479 201.969 289.564Z" fill="#F6DAE9"/>
<path d="M201.969 312.685C201.969 314.77 203.659 316.46 205.743 316.46C207.828 316.46 209.518 314.77 209.518 312.685C209.518 310.6 207.828 308.91 205.743 308.91C203.659 308.91 201.969 310.6 201.969 312.685Z" fill="#F6DAE9"/>
<path d="M21.3969 360.058C19.3121 360.058 17.6224 358.368 17.6224 356.283C17.6224 354.198 19.3121 352.508 21.3969 352.508C23.4817 352.508 25.1714 354.198 25.1714 356.283C25.1714 358.368 23.4817 360.058 21.3969 360.058Z" fill="#F6DAE9"/>
<path d="M21.3969 383.18C19.3121 383.18 17.6224 381.49 17.6224 379.405C17.6224 377.32 19.3121 375.63 21.3969 375.63C23.4817 375.63 25.1714 377.32 25.1714 379.405C25.1714 381.489 23.4817 383.18 21.3969 383.18Z" fill="#F6DAE9"/>
<path d="M21.3969 406.301C19.3121 406.301 17.6224 404.611 17.6224 402.526C17.6224 400.441 19.3121 398.751 21.3969 398.751C23.4817 398.751 25.1714 400.441 25.1714 402.526C25.1714 404.611 23.4817 406.301 21.3969 406.301Z" fill="#F6DAE9"/>
<path d="M21.3969 429.423C19.3121 429.423 17.6224 427.733 17.6224 425.648C17.6224 423.562 19.3121 421.873 21.3969 421.873C23.4817 421.873 25.1714 423.562 25.1714 425.648C25.1714 427.733 23.4817 429.423 21.3969 429.423Z" fill="#F6DAE9"/>
<path d="M309.136 19.842C309.136 21.927 310.826 23.6171 312.911 23.6171C314.995 23.6171 316.685 21.927 316.685 19.842C316.685 17.7571 314.995 16.0669 312.911 16.0669C310.826 16.0669 309.136 17.7571 309.136 19.842Z" fill="#F7AB37"/>
<path d="M309.136 42.9641C309.136 45.049 310.826 46.7392 312.911 46.7392C314.995 46.7392 316.685 45.049 316.685 42.9641C316.685 40.8791 314.995 39.189 312.911 39.189C310.826 39.189 309.136 40.8791 309.136 42.9641Z" fill="#F7AB37"/>
<path d="M309.136 66.0852C309.136 68.1701 310.826 69.8603 312.911 69.8603C314.995 69.8603 316.685 68.1701 316.685 66.0852C316.685 64.0002 314.995 62.3101 312.911 62.3101C310.826 62.3101 309.136 64.0002 309.136 66.0852Z" fill="#F7AB37"/>
<path d="M312.911 92.9814C310.826 92.9814 309.136 91.2914 309.136 89.2063C309.136 87.1211 310.826 85.4312 312.911 85.4312C314.996 85.4312 316.685 87.1211 316.685 89.2063C316.685 91.2914 314.996 92.9814 312.911 92.9814Z" fill="#F7AB37"/>
<path d="M423.617 464.546C423.617 462.46 425.306 460.771 427.391 460.771C429.476 460.771 431.166 462.46 431.166 464.546C431.166 466.631 429.476 468.321 427.391 468.321C425.306 468.32 423.617 466.63 423.617 464.546Z" fill="#F7AB37"/>
<path d="M400.499 464.546C400.499 466.631 402.189 468.321 404.273 468.321C406.358 468.321 408.048 466.631 408.048 464.546C408.048 462.461 406.358 460.771 404.273 460.771C402.189 460.771 400.499 462.461 400.499 464.546Z" fill="#F7AB37"/>
<path d="M377.381 464.546C377.381 466.631 379.071 468.321 381.156 468.321C383.241 468.321 384.93 466.631 384.93 464.546C384.93 462.461 383.241 460.771 381.156 460.771C379.071 460.771 377.381 462.461 377.381 464.546Z" fill="#F7AB37"/>
<path d="M354.265 464.546C354.265 466.631 355.954 468.321 358.039 468.321C360.124 468.321 361.813 466.631 361.813 464.546C361.813 462.461 360.124 460.771 358.039 460.771C355.954 460.771 354.265 462.461 354.265 464.546Z" fill="#F7AB37"/>
<path d="M55.875 111.769L55.875 0L3.8147e-06 -2.44237e-06L-1.0709e-06 111.769L55.875 111.769Z" fill="#885FA0"/>
<path d="M368.417 167.654C368.417 180.197 378.584 190.365 391.125 190.365C403.666 190.365 413.833 180.197 413.833 167.654C413.833 155.111 403.666 144.942 391.125 144.942C378.584 144.942 368.417 155.111 368.417 167.654Z" fill="#F6DAE9"/>
<path d="M369.932 77.3115C369.932 35.203 404.061 1.06689 446.163 1.06689C446.163 43.1753 412.034 77.3115 369.932 77.3115Z" fill="#F7AB37"/>
<path d="M8.39233e-05 -3.33218e-06C42.1012 -1.49188e-06 76.2314 34.1353 76.2314 76.2446C34.1303 76.2446 8.20827e-05 42.1084 8.39233e-05 -3.33218e-06Z" fill="#F7AB37"/>
<path d="M223.5 446.741C265.601 446.741 299.731 480.877 299.731 522.986C257.629 522.986 223.5 488.85 223.5 446.741Z" fill="#885FA0"/>
<path d="M243.839 296.198C243.839 254.089 277.969 219.953 320.071 219.953C320.071 262.062 285.941 296.198 243.839 296.198Z" fill="#F7AB37"/>
<path d="M243.839 296.198C285.941 296.198 320.071 330.333 320.071 372.442C277.97 372.442 243.839 338.306 243.839 296.198Z" fill="#F6DAE9"/>
<path d="M102.382 244.397C102.382 202.289 136.511 168.153 178.613 168.153C178.613 210.261 144.483 244.397 102.382 244.397Z" fill="#FA8958"/>
<path d="M55.875 223.539C86.7341 223.539 111.75 248.559 111.75 279.423L111.75 335.308L55.875 335.308C25.0159 335.308 3.83747e-06 310.288 5.1866e-06 279.423C6.53573e-06 248.559 25.0159 223.539 55.875 223.539Z" fill="#885FA0"/>
<path d="M117.303 366.208C122.907 355.327 131.766 346.467 142.645 340.862L153.423 335.308L142.645 329.754C131.766 324.149 122.907 315.289 117.303 304.408L111.75 293.628L106.197 304.408C100.593 315.289 91.7341 324.149 80.8551 329.754L70.077 335.308L80.8551 340.862C91.7341 346.467 100.593 355.327 106.197 366.208L111.75 376.988L117.303 366.208Z" fill="#FA8958"/>
<path d="M33.1673 279.071C33.1673 291.614 43.3339 301.782 55.8749 301.782C68.416 301.782 78.5825 291.614 78.5825 279.071C78.5825 266.528 68.416 256.359 55.8749 256.359C43.3339 256.359 33.1673 266.528 33.1673 279.071Z" fill="#F6DAE9"/>
<path d="M88.7626 19.842C88.7626 21.927 90.4525 23.6171 92.5371 23.6171C94.6216 23.6171 96.3115 21.927 96.3115 19.842C96.3115 17.7571 94.6216 16.0669 92.5371 16.0669C90.4525 16.0669 88.7626 17.7571 88.7626 19.842Z" fill="#885FA0"/>
<path d="M88.7626 42.9641C88.7626 45.049 90.4525 46.7392 92.5371 46.7392C94.6216 46.7392 96.3115 45.049 96.3115 42.9641C96.3115 40.8791 94.6216 39.189 92.5371 39.189C90.4525 39.189 88.7626 40.8791 88.7626 42.9641Z" fill="#885FA0"/>
<path d="M88.7626 66.0852C88.7626 68.1701 90.4525 69.8603 92.5371 69.8603C94.6216 69.8603 96.3115 68.1701 96.3115 66.0852C96.3115 64.0002 94.6216 62.3101 92.5371 62.3101C90.4525 62.3101 88.7626 64.0002 88.7626 66.0852Z" fill="#885FA0"/>
<path d="M92.5371 92.9814C90.4523 92.9814 88.7626 91.2914 88.7626 89.2063C88.7626 87.1211 90.4523 85.4312 92.5371 85.4312C94.6219 85.4312 96.3115 87.1211 96.3115 89.2063C96.3115 91.2914 94.6219 92.9814 92.5371 92.9814Z" fill="#885FA0"/>
</g>
<defs>
<clipPath id="clip0_29_91309">
<rect width="558" height="447" fill="white" transform="translate(447) rotate(90)"/>
</clipPath>
</defs>
</svg>
