<svg width="24" height="24" viewBox="0 0 24 24" fill="none" xmlns="http://www.w3.org/2000/svg">
<path d="M22.3125 9.43872C22.3128 9.26631 22.279 9.09554 22.2131 8.93625C22.1471 8.77696 22.0503 8.6323 21.9281 8.5106L15.4884 2.07185C15.3666 1.94996 15.2219 1.85327 15.0626 1.7873C14.9034 1.72133 14.7327 1.68738 14.5603 1.68738C14.3879 1.68738 14.2173 1.72133 14.058 1.7873C13.8988 1.85327 13.7541 1.94996 13.6322 2.07185L10.9388 4.76529L5.45813 6.82122C5.24245 6.90196 5.05181 7.03801 4.90535 7.21574C4.75889 7.39346 4.66178 7.60659 4.62375 7.83372L2.445 20.9062C2.43136 20.9869 2.43549 21.0696 2.45711 21.1485C2.47872 21.2275 2.51729 21.3007 2.57014 21.3632C2.62298 21.4257 2.68882 21.4759 2.76306 21.5103C2.83731 21.5447 2.91817 21.5625 3 21.5625C3.0314 21.5624 3.06274 21.5598 3.09375 21.555L16.1663 19.3762C16.3936 19.3384 16.6069 19.2413 16.7848 19.0948C16.9627 18.9484 17.0989 18.7576 17.1797 18.5418L19.2347 13.0612L21.9291 10.3668C22.0511 10.2451 22.1478 10.1004 22.2136 9.94114C22.2794 9.78184 22.313 9.61108 22.3125 9.43872ZM16.125 18.1472C16.1135 18.1779 16.0941 18.2051 16.0687 18.226C16.0434 18.2469 16.013 18.2608 15.9806 18.2662L4.63969 20.1562L9.59625 15.1987C10.1048 15.5124 10.7108 15.6283 11.2991 15.5246C11.8875 15.4208 12.4173 15.1046 12.7879 14.6359C13.1584 14.1673 13.344 13.5788 13.3092 12.9824C13.2745 12.3859 13.0219 11.823 12.5994 11.4005C12.177 10.9781 11.614 10.7255 11.0176 10.6907C10.4211 10.656 9.83271 10.8415 9.36405 11.2121C8.89539 11.5827 8.57915 12.1124 8.4754 12.7008C8.37164 13.2892 8.4876 13.8952 8.80125 14.4037L3.84375 19.3622L5.73469 8.01841C5.74022 7.9863 5.75402 7.95618 5.77473 7.93103C5.79545 7.90588 5.82236 7.88656 5.85281 7.87497L11.1084 5.90622L18.0938 12.8915L16.125 18.1472ZM9.5625 13.125C9.5625 12.8654 9.63948 12.6116 9.7837 12.3958C9.92792 12.1799 10.1329 12.0117 10.3727 11.9124C10.6126 11.813 10.8765 11.7871 11.1311 11.8377C11.3857 11.8883 11.6195 12.0133 11.8031 12.1969C11.9866 12.3805 12.1116 12.6143 12.1623 12.8689C12.2129 13.1235 12.1869 13.3874 12.0876 13.6272C11.9883 13.8671 11.82 14.0721 11.6042 14.2163C11.3883 14.3605 11.1346 14.4375 10.875 14.4375C10.5269 14.4375 10.1931 14.2992 9.94692 14.0531C9.70078 13.8069 9.5625 13.4731 9.5625 13.125ZM21.1322 9.57185L18.75 11.954L12.045 5.24997L14.4281 2.86685C14.4455 2.84941 14.4662 2.83558 14.489 2.82615C14.5117 2.81671 14.5361 2.81186 14.5608 2.81186C14.5854 2.81186 14.6098 2.81671 14.6326 2.82615C14.6553 2.83558 14.676 2.84941 14.6934 2.86685L21.1322 9.30654C21.1496 9.32395 21.1635 9.34463 21.1729 9.36739C21.1823 9.39015 21.1872 9.41455 21.1872 9.43919C21.1872 9.46383 21.1823 9.48823 21.1729 9.51099C21.1635 9.53376 21.1496 9.55443 21.1322 9.57185Z" fill="#1D1A17"/>
</svg>
