<svg width="24" height="24" viewBox="0 0 24 24" fill="none" xmlns="http://www.w3.org/2000/svg">
<path d="M23.0278 3.75005C23.0196 3.61275 22.9613 3.48323 22.8641 3.38598C22.7668 3.28872 22.6373 3.23047 22.5 3.22223C17.7187 2.94098 13.8862 4.38661 12.2484 7.09036C11.1581 8.8913 11.1816 11.0916 12.2981 13.1841C11.5822 14.0037 11.0832 14.9897 10.8469 16.0519L8.99061 14.1947C9.75468 12.6854 9.74999 11.1057 8.96062 9.80255C7.75968 7.81973 4.96874 6.75661 1.49061 6.96286C1.35317 6.97112 1.22353 7.0295 1.12625 7.12695C1.02897 7.2244 0.970816 7.35415 0.962802 7.49161C0.758427 10.9688 1.81968 13.7597 3.80249 14.9607C4.44827 15.3554 5.19065 15.5637 5.94749 15.5625C6.73128 15.5546 7.50215 15.3618 8.19749 15L10.6875 17.4825V20.25C10.6875 20.3992 10.7468 20.5423 10.8522 20.6478C10.9577 20.7533 11.1008 20.8125 11.25 20.8125C11.3992 20.8125 11.5422 20.7533 11.6477 20.6478C11.7532 20.5423 11.8125 20.3992 11.8125 20.25V17.4854C11.8087 16.1967 12.2663 14.9493 13.1025 13.9688C14.1534 14.5247 15.2325 14.8041 16.2731 14.8041C17.291 14.8075 18.2899 14.5294 19.1597 14.0007C21.8634 12.3647 23.3091 8.5313 23.0278 3.75005ZM4.38561 13.9979C2.85655 13.0725 2.0053 10.875 2.06249 8.06255C4.87499 8.00161 7.06968 8.8538 7.99499 10.3829C8.52749 11.2613 8.57249 12.2935 8.13937 13.3444L5.64749 10.8516C5.54194 10.7461 5.39879 10.6868 5.24952 10.6868C5.10025 10.6868 4.9571 10.7461 4.85155 10.8516C4.746 10.9572 4.68671 11.1003 4.68671 11.2496C4.68671 11.3988 4.746 11.542 4.85155 11.6475L7.34718 14.1422C6.29624 14.5754 5.26405 14.5313 4.38561 13.9979ZM18.5775 13.0397C17.1956 13.876 15.5644 13.9004 13.9209 13.1241L19.1484 7.89755C19.2007 7.84528 19.2421 7.78324 19.2704 7.71496C19.2987 7.64667 19.3133 7.57349 19.3133 7.49958C19.3133 7.42567 19.2987 7.35248 19.2704 7.2842C19.2421 7.21592 19.2007 7.15387 19.1484 7.10161C19.0962 7.04935 19.0341 7.00789 18.9658 6.97961C18.8976 6.95132 18.8244 6.93676 18.7505 6.93676C18.6765 6.93676 18.6034 6.95132 18.5351 6.97961C18.4668 7.00789 18.4048 7.04935 18.3525 7.10161L13.125 12.3291C12.3487 10.6857 12.375 9.05442 13.2094 7.67348C14.5706 5.42348 17.8087 4.18786 21.9281 4.32192C22.0622 8.43755 20.8256 11.6775 18.5775 13.0397Z" fill="#1D1A17"/>
</svg>
