<svg width="24" height="24" viewBox="0 0 24 24" fill="none" xmlns="http://www.w3.org/2000/svg">
<path d="M20.8125 12C20.8125 12.1492 20.7532 12.2923 20.6477 12.3977C20.5423 12.5032 20.3992 12.5625 20.25 12.5625H12.5625V20.25C12.5625 20.3992 12.5032 20.5423 12.3977 20.6477C12.2923 20.7532 12.1492 20.8125 12 20.8125C11.8508 20.8125 11.7077 20.7532 11.6023 20.6477C11.4968 20.5423 11.4375 20.3992 11.4375 20.25V12.5625H3.75C3.60082 12.5625 3.45774 12.5032 3.35225 12.3977C3.24676 12.2923 3.1875 12.1492 3.1875 12C3.1875 11.8508 3.24676 11.7077 3.35225 11.6023C3.45774 11.4968 3.60082 11.4375 3.75 11.4375H11.4375V3.75C11.4375 3.60082 11.4968 3.45774 11.6023 3.35225C11.7077 3.24676 11.8508 3.1875 12 3.1875C12.1492 3.1875 12.2923 3.24676 12.3977 3.35225C12.5032 3.45774 12.5625 3.60082 12.5625 3.75V11.4375H20.25C20.3992 11.4375 20.5423 11.4968 20.6477 11.6023C20.7532 11.7077 20.8125 11.8508 20.8125 12Z" fill="#1D1A17"/>
</svg>
