<svg width="24" height="24" viewBox="0 0 24 24" fill="none" xmlns="http://www.w3.org/2000/svg">
<path d="M9.1875 12.75C9.1875 12.6008 9.24676 12.4577 9.35225 12.3523C9.45774 12.2468 9.60082 12.1875 9.75 12.1875H15.75C15.8992 12.1875 16.0423 12.2468 16.1477 12.3523C16.2532 12.4577 16.3125 12.6008 16.3125 12.75C16.3125 12.8992 16.2532 13.0423 16.1477 13.1477C16.0423 13.2532 15.8992 13.3125 15.75 13.3125H9.75C9.60082 13.3125 9.45774 13.2532 9.35225 13.1477C9.24676 13.0423 9.1875 12.8992 9.1875 12.75ZM9.75 10.3125H15.75C15.8992 10.3125 16.0423 10.2532 16.1477 10.1477C16.2532 10.0423 16.3125 9.89918 16.3125 9.75C16.3125 9.60082 16.2532 9.45774 16.1477 9.35225C16.0423 9.24676 15.8992 9.1875 15.75 9.1875H9.75C9.60082 9.1875 9.45774 9.24676 9.35225 9.35225C9.24676 9.45774 9.1875 9.60082 9.1875 9.75C9.1875 9.89918 9.24676 10.0423 9.35225 10.1477C9.45774 10.2532 9.60082 10.3125 9.75 10.3125ZM21.5625 18C21.5625 18.7459 21.2662 19.4613 20.7387 19.9887C20.2113 20.5162 19.4959 20.8125 18.75 20.8125H8.25C7.50408 20.8125 6.78871 20.5162 6.26126 19.9887C5.73382 19.4613 5.4375 18.7459 5.4375 18V6C5.4375 5.55245 5.25971 5.12323 4.94324 4.80676C4.62678 4.49029 4.19755 4.3125 3.75 4.3125C3.30245 4.3125 2.87322 4.49029 2.55676 4.80676C2.24029 5.12323 2.0625 5.55245 2.0625 6C2.0625 6.63375 2.58562 7.04906 2.59125 7.05281C2.65016 7.09738 2.69972 7.15311 2.73709 7.21683C2.77446 7.28055 2.79891 7.35101 2.80905 7.42418C2.81919 7.49735 2.81483 7.5718 2.79619 7.64328C2.77756 7.71476 2.74504 7.78187 2.70047 7.84078C2.6559 7.89969 2.60017 7.94925 2.53645 7.98662C2.47273 8.02399 2.40227 8.04844 2.3291 8.05858C2.25593 8.06873 2.18148 8.06436 2.11 8.04573C2.03852 8.02709 1.97141 7.99457 1.9125 7.95C1.875 7.92 0.9375 7.20469 0.9375 6C0.9375 5.25408 1.23382 4.53871 1.76126 4.01126C2.28871 3.48382 3.00408 3.1875 3.75 3.1875H16.5C17.2459 3.1875 17.9613 3.48382 18.4887 4.01126C19.0162 4.53871 19.3125 5.25408 19.3125 6V15.9375H20.25C20.3717 15.9375 20.4901 15.977 20.5875 16.05C20.625 16.08 21.5625 16.7953 21.5625 18ZM9.9375 18C9.9375 17.3663 9.41344 16.9509 9.40875 16.9472C9.31521 16.8758 9.2464 16.7769 9.21202 16.6644C9.17764 16.5518 9.17941 16.4314 9.21708 16.3199C9.25475 16.2084 9.32644 16.1116 9.42203 16.043C9.51763 15.9744 9.63234 15.9375 9.75 15.9375H18.1875V6C18.1875 5.55245 18.0097 5.12323 17.6932 4.80676C17.3768 4.49029 16.9476 4.3125 16.5 4.3125H6C6.36622 4.79876 6.56373 5.39126 6.5625 6V18C6.5625 18.4476 6.74029 18.8768 7.05676 19.1932C7.37323 19.5097 7.80245 19.6875 8.25 19.6875C8.69755 19.6875 9.12677 19.5097 9.44324 19.1932C9.75971 18.8768 9.9375 18.4476 9.9375 18ZM20.4375 18C20.4248 17.6474 20.2795 17.3126 20.0306 17.0625H10.8637C10.9943 17.3578 11.062 17.6771 11.0625 18C11.0634 18.6087 10.8659 19.2011 10.5 19.6875H18.75C19.1976 19.6875 19.6268 19.5097 19.9432 19.1932C20.2597 18.8768 20.4375 18.4476 20.4375 18Z" fill="#1D1A17"/>
</svg>
