<svg width="24" height="24" viewBox="0 0 24 24" fill="none" xmlns="http://www.w3.org/2000/svg">
<path d="M21.4856 16.2187C21.5606 16.3475 21.5814 16.5008 21.5434 16.645C21.5055 16.7891 21.4118 16.9123 21.2831 16.9874L12.2831 22.2374C12.1976 22.2868 12.1006 22.3128 12.0019 22.3128C11.9031 22.3128 11.8061 22.2868 11.7206 22.2374L2.72063 16.9874C2.60244 16.9078 2.51891 16.7862 2.48693 16.6473C2.45495 16.5084 2.47689 16.3625 2.54833 16.2392C2.61976 16.1158 2.73537 16.0242 2.87177 15.9828C3.00817 15.9414 3.15519 15.9533 3.28313 16.0162L12.0019 21.1003L20.7206 16.0162C20.8491 15.9424 21.0015 15.9223 21.1448 15.9602C21.288 15.9981 21.4105 16.091 21.4856 16.2187ZM20.7188 11.5143L12 16.5984L3.28125 11.5143C3.15332 11.4515 3.00629 11.4395 2.86989 11.4809C2.73349 11.5223 2.61789 11.6139 2.54645 11.7373C2.47502 11.8606 2.45307 12.0065 2.48506 12.1454C2.51704 12.2843 2.60056 12.4059 2.71875 12.4856L11.7188 17.7356C11.8043 17.7849 11.9013 17.8109 12 17.8109C12.0987 17.8109 12.1957 17.7849 12.2812 17.7356L21.2812 12.4856C21.3994 12.4059 21.483 12.2843 21.5149 12.1454C21.5469 12.0065 21.525 11.8606 21.4535 11.7373C21.3821 11.6139 21.2665 11.5223 21.1301 11.4809C20.9937 11.4395 20.8467 11.4515 20.7188 11.5143ZM2.4375 7.49995C2.43777 7.40147 2.46388 7.30478 2.51324 7.21956C2.5626 7.13434 2.63346 7.06357 2.71875 7.01433L11.7188 1.76433C11.8043 1.71496 11.9013 1.68896 12 1.68896C12.0987 1.68896 12.1957 1.71496 12.2812 1.76433L21.2812 7.01433C21.3661 7.06389 21.4364 7.13481 21.4853 7.22001C21.5342 7.30521 21.5599 7.40172 21.5599 7.49995C21.5599 7.59818 21.5342 7.69469 21.4853 7.77989C21.4364 7.86509 21.3661 7.93601 21.2812 7.98558L12.2812 13.2356C12.1957 13.2849 12.0987 13.3109 12 13.3109C11.9013 13.3109 11.8043 13.2849 11.7188 13.2356L2.71875 7.98558C2.63346 7.93633 2.5626 7.86556 2.51324 7.78034C2.46388 7.69512 2.43777 7.59843 2.4375 7.49995ZM4.11656 7.49995L12 12.0984L19.8834 7.49995L12 2.9062L4.11656 7.49995Z" fill="#1D1A17"/>
</svg>
